<mxfile host="app.diagrams.net" modified="2022-05-06T00:40:44.510Z" agent="5.0 (Windows NT 6.1; Win64; x64) AppleWebKit/537.36 (KHTML, like Gecko) Chrome/100.0.4896.127 Safari/537.36" etag="Az86CNgVQ1xasaqGGqNl" version="18.0.1" type="github">
  <diagram name="Page-1" id="9c096ad6-e400-ecc8-3e38-643d2caac077">
    <mxGraphModel dx="1065" dy="2104" grid="1" gridSize="10" guides="1" tooltips="1" connect="1" arrows="1" fold="1" page="1" pageScale="1.5" pageWidth="1169" pageHeight="826" background="none" math="0" shadow="0">
      <root>
        <mxCell id="0" style=";html=1;" />
        <mxCell id="1" style=";html=1;" parent="0" />
        <mxCell id="3cfceab9cabfe5b9-58" style="edgeStyle=none;curved=1;html=1;startSize=10;endArrow=classic;endFill=1;endSize=10;strokeWidth=1;fontSize=12;" parent="1" source="3cfceab9cabfe5b9-11" edge="1">
          <mxGeometry relative="1" as="geometry">
            <mxPoint x="767" y="739.25" as="targetPoint" />
          </mxGeometry>
        </mxCell>
        <mxCell id="3cfceab9cabfe5b9-59" value="" style="line;strokeWidth=1;html=1;rounded=1;fontSize=12;align=center;verticalAlign=middle;strokeColor=#FF0000;endFill=1;endArrow=classic;endSize=10;startSize=10;" parent="1" vertex="1">
          <mxGeometry x="87" y="1105" width="68" height="10" as="geometry" />
        </mxCell>
        <mxCell id="3cfceab9cabfe5b9-60" value="Preferred route" style="text;html=1;strokeColor=none;fillColor=none;align=left;verticalAlign=middle;whiteSpace=wrap;rounded=0;shadow=1;fontSize=12;" parent="1" vertex="1">
          <mxGeometry x="172" y="1100" width="143" height="20" as="geometry" />
        </mxCell>
        <mxCell id="eAJ5GtYhw6C0Gg1e52sK-1" value="" style="ellipse;whiteSpace=wrap;html=1;aspect=fixed;fontStyle=1;align=left;" vertex="1" parent="1">
          <mxGeometry x="172" y="340" width="80" height="80" as="geometry" />
        </mxCell>
        <mxCell id="eAJ5GtYhw6C0Gg1e52sK-13" value="A=3" style="text;html=1;align=center;verticalAlign=middle;resizable=0;points=[];autosize=1;strokeColor=none;fillColor=none;" vertex="1" parent="1">
          <mxGeometry x="300" y="300" width="40" height="20" as="geometry" />
        </mxCell>
        <mxCell id="eAJ5GtYhw6C0Gg1e52sK-17" value="" style="endArrow=classic;html=1;rounded=0;entryX=0;entryY=0.5;entryDx=0;entryDy=0;exitX=1;exitY=0;exitDx=0;exitDy=0;" edge="1" parent="1" source="eAJ5GtYhw6C0Gg1e52sK-1" target="eAJ5GtYhw6C0Gg1e52sK-94">
          <mxGeometry width="50" height="50" relative="1" as="geometry">
            <mxPoint x="245" y="350" as="sourcePoint" />
            <mxPoint x="495" y="200" as="targetPoint" />
            <Array as="points" />
          </mxGeometry>
        </mxCell>
        <mxCell id="eAJ5GtYhw6C0Gg1e52sK-19" value="" style="endArrow=classic;html=1;rounded=0;exitX=1;exitY=1;exitDx=0;exitDy=0;entryX=0;entryY=0;entryDx=0;entryDy=0;" edge="1" parent="1" source="eAJ5GtYhw6C0Gg1e52sK-1" target="eAJ5GtYhw6C0Gg1e52sK-107">
          <mxGeometry width="50" height="50" relative="1" as="geometry">
            <mxPoint x="250" y="470" as="sourcePoint" />
            <mxPoint x="279.9248845020079" y="475.40246052473685" as="targetPoint" />
          </mxGeometry>
        </mxCell>
        <mxCell id="eAJ5GtYhw6C0Gg1e52sK-56" value="" style="ellipse;whiteSpace=wrap;html=1;aspect=fixed;" vertex="1" parent="1">
          <mxGeometry x="460" y="370" width="80" height="80" as="geometry" />
        </mxCell>
        <mxCell id="eAJ5GtYhw6C0Gg1e52sK-63" value="" style="endArrow=none;html=1;rounded=0;exitX=0;exitY=0.5;exitDx=0;exitDy=0;" edge="1" parent="1" source="eAJ5GtYhw6C0Gg1e52sK-1" target="eAJ5GtYhw6C0Gg1e52sK-1">
          <mxGeometry width="50" height="50" relative="1" as="geometry">
            <mxPoint x="180" y="380" as="sourcePoint" />
            <mxPoint x="230" y="330" as="targetPoint" />
            <Array as="points">
              <mxPoint x="250" y="380" />
              <mxPoint x="250" y="380" />
            </Array>
          </mxGeometry>
        </mxCell>
        <mxCell id="eAJ5GtYhw6C0Gg1e52sK-64" value="" style="endArrow=none;html=1;rounded=0;exitX=0.5;exitY=1;exitDx=0;exitDy=0;" edge="1" parent="1" source="eAJ5GtYhw6C0Gg1e52sK-1">
          <mxGeometry width="50" height="50" relative="1" as="geometry">
            <mxPoint x="200" y="390" as="sourcePoint" />
            <mxPoint x="212" y="380" as="targetPoint" />
          </mxGeometry>
        </mxCell>
        <mxCell id="eAJ5GtYhw6C0Gg1e52sK-89" value="" style="endArrow=none;html=1;rounded=0;exitX=0;exitY=0.5;exitDx=0;exitDy=0;" edge="1" parent="1">
          <mxGeometry width="50" height="50" relative="1" as="geometry">
            <mxPoint x="460.0000000000002" y="410.00000000000006" as="sourcePoint" />
            <mxPoint x="539.9999999999998" y="410.00000000000006" as="targetPoint" />
            <Array as="points">
              <mxPoint x="538" y="410" />
              <mxPoint x="538" y="410" />
            </Array>
          </mxGeometry>
        </mxCell>
        <mxCell id="eAJ5GtYhw6C0Gg1e52sK-90" value="" style="endArrow=none;html=1;rounded=0;exitX=0.5;exitY=1;exitDx=0;exitDy=0;" edge="1" parent="1">
          <mxGeometry width="50" height="50" relative="1" as="geometry">
            <mxPoint x="500" y="450" as="sourcePoint" />
            <mxPoint x="500" y="410.00000000000006" as="targetPoint" />
          </mxGeometry>
        </mxCell>
        <mxCell id="eAJ5GtYhw6C0Gg1e52sK-91" value="0" style="text;html=1;align=center;verticalAlign=middle;resizable=0;points=[];autosize=1;strokeColor=none;fillColor=none;" vertex="1" parent="1">
          <mxGeometry x="190" y="390" width="20" height="20" as="geometry" />
        </mxCell>
        <mxCell id="eAJ5GtYhw6C0Gg1e52sK-92" value="0" style="text;html=1;align=center;verticalAlign=middle;resizable=0;points=[];autosize=1;strokeColor=none;fillColor=none;" vertex="1" parent="1">
          <mxGeometry x="210" y="390" width="20" height="20" as="geometry" />
        </mxCell>
        <mxCell id="eAJ5GtYhw6C0Gg1e52sK-93" value="1" style="text;html=1;align=center;verticalAlign=middle;resizable=0;points=[];autosize=1;strokeColor=none;fillColor=none;" vertex="1" parent="1">
          <mxGeometry x="202" y="350" width="20" height="20" as="geometry" />
        </mxCell>
        <mxCell id="eAJ5GtYhw6C0Gg1e52sK-94" value="" style="ellipse;whiteSpace=wrap;html=1;aspect=fixed;fontStyle=1;align=left;" vertex="1" parent="1">
          <mxGeometry x="440" y="260" width="80" height="80" as="geometry" />
        </mxCell>
        <mxCell id="eAJ5GtYhw6C0Gg1e52sK-95" value="" style="endArrow=none;html=1;rounded=0;exitX=0;exitY=0.5;exitDx=0;exitDy=0;" edge="1" parent="1" source="eAJ5GtYhw6C0Gg1e52sK-94" target="eAJ5GtYhw6C0Gg1e52sK-94">
          <mxGeometry width="50" height="50" relative="1" as="geometry">
            <mxPoint x="448" y="300" as="sourcePoint" />
            <mxPoint x="498" y="250" as="targetPoint" />
            <Array as="points">
              <mxPoint x="518" y="300" />
              <mxPoint x="518" y="300" />
            </Array>
          </mxGeometry>
        </mxCell>
        <mxCell id="eAJ5GtYhw6C0Gg1e52sK-96" value="" style="endArrow=none;html=1;rounded=0;exitX=0.5;exitY=1;exitDx=0;exitDy=0;" edge="1" parent="1" source="eAJ5GtYhw6C0Gg1e52sK-94">
          <mxGeometry width="50" height="50" relative="1" as="geometry">
            <mxPoint x="468" y="310" as="sourcePoint" />
            <mxPoint x="480" y="300" as="targetPoint" />
          </mxGeometry>
        </mxCell>
        <mxCell id="eAJ5GtYhw6C0Gg1e52sK-100" value="" style="endArrow=classic;html=1;rounded=0;exitX=1;exitY=0.5;exitDx=0;exitDy=0;" edge="1" parent="1" source="eAJ5GtYhw6C0Gg1e52sK-1">
          <mxGeometry width="50" height="50" relative="1" as="geometry">
            <mxPoint x="580" y="350" as="sourcePoint" />
            <mxPoint x="320" y="380" as="targetPoint" />
          </mxGeometry>
        </mxCell>
        <mxCell id="eAJ5GtYhw6C0Gg1e52sK-101" value="" style="ellipse;whiteSpace=wrap;html=1;aspect=fixed;fontStyle=1;align=left;" vertex="1" parent="1">
          <mxGeometry x="320" y="340" width="80" height="80" as="geometry" />
        </mxCell>
        <mxCell id="eAJ5GtYhw6C0Gg1e52sK-102" value="" style="endArrow=none;html=1;rounded=0;exitX=0;exitY=0.5;exitDx=0;exitDy=0;" edge="1" parent="1" source="eAJ5GtYhw6C0Gg1e52sK-101" target="eAJ5GtYhw6C0Gg1e52sK-101">
          <mxGeometry width="50" height="50" relative="1" as="geometry">
            <mxPoint x="328" y="380" as="sourcePoint" />
            <mxPoint x="378" y="330" as="targetPoint" />
            <Array as="points">
              <mxPoint x="398" y="380" />
              <mxPoint x="398" y="380" />
            </Array>
          </mxGeometry>
        </mxCell>
        <mxCell id="eAJ5GtYhw6C0Gg1e52sK-103" value="" style="endArrow=none;html=1;rounded=0;exitX=0.5;exitY=1;exitDx=0;exitDy=0;" edge="1" parent="1" source="eAJ5GtYhw6C0Gg1e52sK-101">
          <mxGeometry width="50" height="50" relative="1" as="geometry">
            <mxPoint x="348" y="390" as="sourcePoint" />
            <mxPoint x="360" y="380" as="targetPoint" />
          </mxGeometry>
        </mxCell>
        <mxCell id="eAJ5GtYhw6C0Gg1e52sK-104" value="B=5" style="text;html=1;align=center;verticalAlign=middle;resizable=0;points=[];autosize=1;strokeColor=none;fillColor=none;" vertex="1" parent="1">
          <mxGeometry x="260" y="360" width="40" height="20" as="geometry" />
        </mxCell>
        <mxCell id="eAJ5GtYhw6C0Gg1e52sK-105" value="" style="endArrow=classic;html=1;rounded=0;entryX=0.76;entryY=0.086;entryDx=0;entryDy=0;entryPerimeter=0;" edge="1" parent="1" target="eAJ5GtYhw6C0Gg1e52sK-107">
          <mxGeometry width="50" height="50" relative="1" as="geometry">
            <mxPoint x="360" y="420" as="sourcePoint" />
            <mxPoint x="340" y="470" as="targetPoint" />
          </mxGeometry>
        </mxCell>
        <mxCell id="eAJ5GtYhw6C0Gg1e52sK-106" value="C=3&lt;br&gt;" style="text;html=1;align=center;verticalAlign=middle;resizable=0;points=[];autosize=1;strokeColor=none;fillColor=none;" vertex="1" parent="1">
          <mxGeometry x="250" y="420" width="40" height="20" as="geometry" />
        </mxCell>
        <mxCell id="eAJ5GtYhw6C0Gg1e52sK-107" value="" style="ellipse;whiteSpace=wrap;html=1;aspect=fixed;fontStyle=1;align=left;" vertex="1" parent="1">
          <mxGeometry x="275" y="470" width="80" height="80" as="geometry" />
        </mxCell>
        <mxCell id="eAJ5GtYhw6C0Gg1e52sK-108" value="" style="endArrow=none;html=1;rounded=0;exitX=0;exitY=0.5;exitDx=0;exitDy=0;" edge="1" parent="1" source="eAJ5GtYhw6C0Gg1e52sK-107" target="eAJ5GtYhw6C0Gg1e52sK-107">
          <mxGeometry width="50" height="50" relative="1" as="geometry">
            <mxPoint x="283" y="510" as="sourcePoint" />
            <mxPoint x="333" y="460" as="targetPoint" />
            <Array as="points">
              <mxPoint x="353" y="510" />
              <mxPoint x="353" y="510" />
            </Array>
          </mxGeometry>
        </mxCell>
        <mxCell id="eAJ5GtYhw6C0Gg1e52sK-109" value="" style="endArrow=none;html=1;rounded=0;exitX=0.5;exitY=1;exitDx=0;exitDy=0;" edge="1" parent="1" source="eAJ5GtYhw6C0Gg1e52sK-107">
          <mxGeometry width="50" height="50" relative="1" as="geometry">
            <mxPoint x="303" y="520" as="sourcePoint" />
            <mxPoint x="315" y="510" as="targetPoint" />
          </mxGeometry>
        </mxCell>
        <mxCell id="eAJ5GtYhw6C0Gg1e52sK-110" value="D=3" style="text;html=1;align=center;verticalAlign=middle;resizable=0;points=[];autosize=1;strokeColor=none;fillColor=none;" vertex="1" parent="1">
          <mxGeometry x="340" y="440" width="40" height="20" as="geometry" />
        </mxCell>
        <mxCell id="eAJ5GtYhw6C0Gg1e52sK-111" value="" style="endArrow=classic;html=1;rounded=0;entryX=0;entryY=0.625;entryDx=0;entryDy=0;entryPerimeter=0;exitX=1;exitY=0;exitDx=0;exitDy=0;" edge="1" parent="1" source="eAJ5GtYhw6C0Gg1e52sK-101" target="eAJ5GtYhw6C0Gg1e52sK-94">
          <mxGeometry width="50" height="50" relative="1" as="geometry">
            <mxPoint x="389.2794186814483" y="348.2114827572789" as="sourcePoint" />
            <mxPoint x="355" y="280" as="targetPoint" />
          </mxGeometry>
        </mxCell>
        <mxCell id="eAJ5GtYhw6C0Gg1e52sK-112" value="E=2" style="text;html=1;align=center;verticalAlign=middle;resizable=0;points=[];autosize=1;strokeColor=none;fillColor=none;" vertex="1" parent="1">
          <mxGeometry x="380" y="320" width="40" height="20" as="geometry" />
        </mxCell>
        <mxCell id="eAJ5GtYhw6C0Gg1e52sK-113" value="" style="endArrow=classic;html=1;rounded=0;exitX=1;exitY=0.5;exitDx=0;exitDy=0;entryX=0;entryY=0.5;entryDx=0;entryDy=0;" edge="1" parent="1" source="eAJ5GtYhw6C0Gg1e52sK-101" target="eAJ5GtYhw6C0Gg1e52sK-56">
          <mxGeometry width="50" height="50" relative="1" as="geometry">
            <mxPoint x="420" y="420" as="sourcePoint" />
            <mxPoint x="470" y="380" as="targetPoint" />
          </mxGeometry>
        </mxCell>
        <mxCell id="eAJ5GtYhw6C0Gg1e52sK-114" value="F=5" style="text;html=1;align=center;verticalAlign=middle;resizable=0;points=[];autosize=1;strokeColor=none;fillColor=none;" vertex="1" parent="1">
          <mxGeometry x="410" y="370" width="40" height="20" as="geometry" />
        </mxCell>
        <mxCell id="eAJ5GtYhw6C0Gg1e52sK-116" value="" style="endArrow=classic;html=1;rounded=0;entryX=0.5;entryY=0;entryDx=0;entryDy=0;" edge="1" parent="1" target="eAJ5GtYhw6C0Gg1e52sK-56">
          <mxGeometry width="50" height="50" relative="1" as="geometry">
            <mxPoint x="480" y="340" as="sourcePoint" />
            <mxPoint x="500" y="400" as="targetPoint" />
          </mxGeometry>
        </mxCell>
        <mxCell id="eAJ5GtYhw6C0Gg1e52sK-117" value="G=2" style="text;html=1;align=center;verticalAlign=middle;resizable=0;points=[];autosize=1;strokeColor=none;fillColor=none;" vertex="1" parent="1">
          <mxGeometry x="480" y="340" width="40" height="20" as="geometry" />
        </mxCell>
        <mxCell id="eAJ5GtYhw6C0Gg1e52sK-126" value="I=4" style="text;html=1;align=center;verticalAlign=middle;resizable=0;points=[];autosize=1;strokeColor=none;fillColor=none;" vertex="1" parent="1">
          <mxGeometry x="680" y="240" width="30" height="20" as="geometry" />
        </mxCell>
        <mxCell id="eAJ5GtYhw6C0Gg1e52sK-127" value="" style="endArrow=classic;html=1;rounded=0;exitX=1;exitY=0.5;exitDx=0;exitDy=0;" edge="1" parent="1" source="eAJ5GtYhw6C0Gg1e52sK-56">
          <mxGeometry width="50" height="50" relative="1" as="geometry">
            <mxPoint x="470" y="330" as="sourcePoint" />
            <mxPoint x="600" y="410" as="targetPoint" />
          </mxGeometry>
        </mxCell>
        <mxCell id="eAJ5GtYhw6C0Gg1e52sK-128" value="" style="endArrow=classic;html=1;rounded=0;exitX=1;exitY=0.5;exitDx=0;exitDy=0;" edge="1" parent="1" source="eAJ5GtYhw6C0Gg1e52sK-107" target="eAJ5GtYhw6C0Gg1e52sK-129">
          <mxGeometry width="50" height="50" relative="1" as="geometry">
            <mxPoint x="470" y="330" as="sourcePoint" />
            <mxPoint x="600" y="410" as="targetPoint" />
            <Array as="points">
              <mxPoint x="490" y="470" />
            </Array>
          </mxGeometry>
        </mxCell>
        <mxCell id="eAJ5GtYhw6C0Gg1e52sK-129" value="" style="ellipse;whiteSpace=wrap;html=1;aspect=fixed;fontStyle=1;align=left;" vertex="1" parent="1">
          <mxGeometry x="600" y="370" width="80" height="80" as="geometry" />
        </mxCell>
        <mxCell id="eAJ5GtYhw6C0Gg1e52sK-130" value="" style="endArrow=none;html=1;rounded=0;exitX=0;exitY=0.5;exitDx=0;exitDy=0;" edge="1" parent="1" source="eAJ5GtYhw6C0Gg1e52sK-129" target="eAJ5GtYhw6C0Gg1e52sK-129">
          <mxGeometry width="50" height="50" relative="1" as="geometry">
            <mxPoint x="608" y="410" as="sourcePoint" />
            <mxPoint x="658" y="360" as="targetPoint" />
            <Array as="points">
              <mxPoint x="678" y="410" />
              <mxPoint x="678" y="410" />
            </Array>
          </mxGeometry>
        </mxCell>
        <mxCell id="eAJ5GtYhw6C0Gg1e52sK-131" value="" style="endArrow=none;html=1;rounded=0;exitX=0.5;exitY=1;exitDx=0;exitDy=0;" edge="1" parent="1" source="eAJ5GtYhw6C0Gg1e52sK-129">
          <mxGeometry width="50" height="50" relative="1" as="geometry">
            <mxPoint x="628" y="420" as="sourcePoint" />
            <mxPoint x="640" y="410" as="targetPoint" />
          </mxGeometry>
        </mxCell>
        <mxCell id="eAJ5GtYhw6C0Gg1e52sK-132" value="" style="endArrow=classic;html=1;rounded=0;exitX=1;exitY=0;exitDx=0;exitDy=0;" edge="1" parent="1" source="eAJ5GtYhw6C0Gg1e52sK-56">
          <mxGeometry width="50" height="50" relative="1" as="geometry">
            <mxPoint x="670" y="390" as="sourcePoint" />
            <mxPoint x="710" y="320" as="targetPoint" />
          </mxGeometry>
        </mxCell>
        <mxCell id="eAJ5GtYhw6C0Gg1e52sK-133" value="" style="ellipse;whiteSpace=wrap;html=1;aspect=fixed;fontStyle=1;align=left;" vertex="1" parent="1">
          <mxGeometry x="710" y="280" width="80" height="80" as="geometry" />
        </mxCell>
        <mxCell id="eAJ5GtYhw6C0Gg1e52sK-134" value="" style="endArrow=none;html=1;rounded=0;exitX=0;exitY=0.5;exitDx=0;exitDy=0;" edge="1" parent="1" source="eAJ5GtYhw6C0Gg1e52sK-133" target="eAJ5GtYhw6C0Gg1e52sK-133">
          <mxGeometry width="50" height="50" relative="1" as="geometry">
            <mxPoint x="718" y="320" as="sourcePoint" />
            <mxPoint x="768" y="270" as="targetPoint" />
            <Array as="points">
              <mxPoint x="788" y="320" />
              <mxPoint x="788" y="320" />
            </Array>
          </mxGeometry>
        </mxCell>
        <mxCell id="eAJ5GtYhw6C0Gg1e52sK-135" value="" style="endArrow=none;html=1;rounded=0;exitX=0.5;exitY=1;exitDx=0;exitDy=0;" edge="1" parent="1" source="eAJ5GtYhw6C0Gg1e52sK-133">
          <mxGeometry width="50" height="50" relative="1" as="geometry">
            <mxPoint x="738" y="330" as="sourcePoint" />
            <mxPoint x="750" y="320" as="targetPoint" />
          </mxGeometry>
        </mxCell>
        <mxCell id="eAJ5GtYhw6C0Gg1e52sK-136" value="" style="endArrow=classic;html=1;rounded=0;exitX=1;exitY=0.5;exitDx=0;exitDy=0;" edge="1" parent="1" source="eAJ5GtYhw6C0Gg1e52sK-129" target="eAJ5GtYhw6C0Gg1e52sK-133">
          <mxGeometry width="50" height="50" relative="1" as="geometry">
            <mxPoint x="670" y="390" as="sourcePoint" />
            <mxPoint x="720" y="340" as="targetPoint" />
          </mxGeometry>
        </mxCell>
        <mxCell id="eAJ5GtYhw6C0Gg1e52sK-137" value="" style="endArrow=classic;html=1;rounded=0;exitX=1;exitY=0.5;exitDx=0;exitDy=0;" edge="1" parent="1" source="eAJ5GtYhw6C0Gg1e52sK-133">
          <mxGeometry width="50" height="50" relative="1" as="geometry">
            <mxPoint x="670" y="390" as="sourcePoint" />
            <mxPoint x="840" y="320" as="targetPoint" />
          </mxGeometry>
        </mxCell>
        <mxCell id="eAJ5GtYhw6C0Gg1e52sK-138" value="" style="ellipse;whiteSpace=wrap;html=1;aspect=fixed;fontStyle=1;align=left;" vertex="1" parent="1">
          <mxGeometry x="840" y="280" width="80" height="80" as="geometry" />
        </mxCell>
        <mxCell id="eAJ5GtYhw6C0Gg1e52sK-139" value="" style="endArrow=none;html=1;rounded=0;exitX=0;exitY=0.5;exitDx=0;exitDy=0;" edge="1" parent="1" source="eAJ5GtYhw6C0Gg1e52sK-138" target="eAJ5GtYhw6C0Gg1e52sK-138">
          <mxGeometry width="50" height="50" relative="1" as="geometry">
            <mxPoint x="848" y="320" as="sourcePoint" />
            <mxPoint x="898" y="270" as="targetPoint" />
            <Array as="points">
              <mxPoint x="918" y="320" />
              <mxPoint x="918" y="320" />
            </Array>
          </mxGeometry>
        </mxCell>
        <mxCell id="eAJ5GtYhw6C0Gg1e52sK-140" value="" style="endArrow=none;html=1;rounded=0;exitX=0.5;exitY=1;exitDx=0;exitDy=0;" edge="1" parent="1" source="eAJ5GtYhw6C0Gg1e52sK-138">
          <mxGeometry width="50" height="50" relative="1" as="geometry">
            <mxPoint x="868" y="330" as="sourcePoint" />
            <mxPoint x="880" y="320" as="targetPoint" />
          </mxGeometry>
        </mxCell>
        <mxCell id="eAJ5GtYhw6C0Gg1e52sK-141" value="H=2" style="text;html=1;align=center;verticalAlign=middle;resizable=0;points=[];autosize=1;strokeColor=none;fillColor=none;" vertex="1" parent="1">
          <mxGeometry x="430" y="460" width="40" height="20" as="geometry" />
        </mxCell>
        <mxCell id="eAJ5GtYhw6C0Gg1e52sK-142" value="J=4" style="text;html=1;align=center;verticalAlign=middle;resizable=0;points=[];autosize=1;strokeColor=none;fillColor=none;" vertex="1" parent="1">
          <mxGeometry x="570" y="340" width="40" height="20" as="geometry" />
        </mxCell>
        <mxCell id="eAJ5GtYhw6C0Gg1e52sK-143" value="K=4" style="text;html=1;align=center;verticalAlign=middle;resizable=0;points=[];autosize=1;strokeColor=none;fillColor=none;" vertex="1" parent="1">
          <mxGeometry x="540" y="390" width="40" height="20" as="geometry" />
        </mxCell>
        <mxCell id="eAJ5GtYhw6C0Gg1e52sK-144" value="L=2" style="text;html=1;align=center;verticalAlign=middle;resizable=0;points=[];autosize=1;strokeColor=none;fillColor=none;" vertex="1" parent="1">
          <mxGeometry x="690" y="380" width="40" height="20" as="geometry" />
        </mxCell>
        <mxCell id="eAJ5GtYhw6C0Gg1e52sK-145" value="M=2" style="text;html=1;align=center;verticalAlign=middle;resizable=0;points=[];autosize=1;strokeColor=none;fillColor=none;" vertex="1" parent="1">
          <mxGeometry x="800" y="300" width="40" height="20" as="geometry" />
        </mxCell>
        <mxCell id="eAJ5GtYhw6C0Gg1e52sK-146" value="2" style="text;html=1;align=center;verticalAlign=middle;resizable=0;points=[];autosize=1;strokeColor=none;fillColor=none;" vertex="1" parent="1">
          <mxGeometry x="350" y="350" width="20" height="20" as="geometry" />
        </mxCell>
        <mxCell id="eAJ5GtYhw6C0Gg1e52sK-147" value="5" style="text;html=1;align=center;verticalAlign=middle;resizable=0;points=[];autosize=1;strokeColor=none;fillColor=none;" vertex="1" parent="1">
          <mxGeometry x="340" y="390" width="20" height="20" as="geometry" />
        </mxCell>
        <mxCell id="eAJ5GtYhw6C0Gg1e52sK-148" value="5" style="text;html=1;align=center;verticalAlign=middle;resizable=0;points=[];autosize=1;strokeColor=none;fillColor=none;" vertex="1" parent="1">
          <mxGeometry x="360" y="390" width="20" height="20" as="geometry" />
        </mxCell>
        <mxCell id="eAJ5GtYhw6C0Gg1e52sK-149" value="8" style="text;html=1;align=center;verticalAlign=middle;resizable=0;points=[];autosize=1;strokeColor=none;fillColor=none;" vertex="1" parent="1">
          <mxGeometry x="295" y="520" width="20" height="20" as="geometry" />
        </mxCell>
        <mxCell id="eAJ5GtYhw6C0Gg1e52sK-150" value="12" style="text;html=1;align=center;verticalAlign=middle;resizable=0;points=[];autosize=1;strokeColor=none;fillColor=none;" vertex="1" parent="1">
          <mxGeometry x="310" y="520" width="30" height="20" as="geometry" />
        </mxCell>
        <mxCell id="eAJ5GtYhw6C0Gg1e52sK-151" value="3" style="text;html=1;align=center;verticalAlign=middle;resizable=0;points=[];autosize=1;strokeColor=none;fillColor=none;" vertex="1" parent="1">
          <mxGeometry x="305" y="480" width="20" height="20" as="geometry" />
        </mxCell>
        <mxCell id="eAJ5GtYhw6C0Gg1e52sK-152" value="7" style="text;html=1;align=center;verticalAlign=middle;resizable=0;points=[];autosize=1;strokeColor=none;fillColor=none;" vertex="1" parent="1">
          <mxGeometry x="450" y="310" width="20" height="20" as="geometry" />
        </mxCell>
        <mxCell id="eAJ5GtYhw6C0Gg1e52sK-153" value="14" style="text;html=1;align=center;verticalAlign=middle;resizable=0;points=[];autosize=1;strokeColor=none;fillColor=none;" vertex="1" parent="1">
          <mxGeometry x="480" y="310" width="30" height="20" as="geometry" />
        </mxCell>
        <mxCell id="eAJ5GtYhw6C0Gg1e52sK-154" value="4" style="text;html=1;align=center;verticalAlign=middle;resizable=0;points=[];autosize=1;strokeColor=none;fillColor=none;" vertex="1" parent="1">
          <mxGeometry x="470" y="270" width="20" height="20" as="geometry" />
        </mxCell>
        <mxCell id="eAJ5GtYhw6C0Gg1e52sK-155" value="10&lt;br&gt;" style="text;html=1;align=center;verticalAlign=middle;resizable=0;points=[];autosize=1;strokeColor=none;fillColor=none;" vertex="1" parent="1">
          <mxGeometry x="470" y="420" width="30" height="20" as="geometry" />
        </mxCell>
        <mxCell id="eAJ5GtYhw6C0Gg1e52sK-156" value="10&lt;br&gt;" style="text;html=1;align=center;verticalAlign=middle;resizable=0;points=[];autosize=1;strokeColor=none;fillColor=none;" vertex="1" parent="1">
          <mxGeometry x="500" y="420" width="30" height="20" as="geometry" />
        </mxCell>
        <mxCell id="eAJ5GtYhw6C0Gg1e52sK-157" value="5" style="text;html=1;align=center;verticalAlign=middle;resizable=0;points=[];autosize=1;strokeColor=none;fillColor=none;" vertex="1" parent="1">
          <mxGeometry x="490" y="380" width="20" height="20" as="geometry" />
        </mxCell>
        <mxCell id="eAJ5GtYhw6C0Gg1e52sK-158" value="" style="endArrow=classic;html=1;rounded=0;entryX=0;entryY=0;entryDx=0;entryDy=0;" edge="1" parent="1" target="eAJ5GtYhw6C0Gg1e52sK-138">
          <mxGeometry width="50" height="50" relative="1" as="geometry">
            <mxPoint x="520" y="300" as="sourcePoint" />
            <mxPoint x="820" y="330" as="targetPoint" />
            <Array as="points">
              <mxPoint x="690" y="260" />
            </Array>
          </mxGeometry>
        </mxCell>
        <mxCell id="eAJ5GtYhw6C0Gg1e52sK-162" value="14" style="text;html=1;align=center;verticalAlign=middle;resizable=0;points=[];autosize=1;strokeColor=none;fillColor=none;" vertex="1" parent="1">
          <mxGeometry x="610" y="420" width="30" height="20" as="geometry" />
        </mxCell>
        <mxCell id="eAJ5GtYhw6C0Gg1e52sK-163" value="14" style="text;html=1;align=center;verticalAlign=middle;resizable=0;points=[];autosize=1;strokeColor=none;fillColor=none;" vertex="1" parent="1">
          <mxGeometry x="640" y="420" width="30" height="20" as="geometry" />
        </mxCell>
        <mxCell id="eAJ5GtYhw6C0Gg1e52sK-164" value="7" style="text;html=1;align=center;verticalAlign=middle;resizable=0;points=[];autosize=1;strokeColor=none;fillColor=none;" vertex="1" parent="1">
          <mxGeometry x="630" y="390" width="20" height="20" as="geometry" />
        </mxCell>
        <mxCell id="eAJ5GtYhw6C0Gg1e52sK-165" value="16" style="text;html=1;align=center;verticalAlign=middle;resizable=0;points=[];autosize=1;strokeColor=none;fillColor=none;" vertex="1" parent="1">
          <mxGeometry x="720" y="330" width="30" height="20" as="geometry" />
        </mxCell>
        <mxCell id="eAJ5GtYhw6C0Gg1e52sK-166" value="16" style="text;html=1;align=center;verticalAlign=middle;resizable=0;points=[];autosize=1;strokeColor=none;fillColor=none;" vertex="1" parent="1">
          <mxGeometry x="750" y="330" width="30" height="20" as="geometry" />
        </mxCell>
        <mxCell id="eAJ5GtYhw6C0Gg1e52sK-167" value="8" style="text;html=1;align=center;verticalAlign=middle;resizable=0;points=[];autosize=1;strokeColor=none;fillColor=none;" vertex="1" parent="1">
          <mxGeometry x="740" y="300" width="20" height="20" as="geometry" />
        </mxCell>
        <mxCell id="eAJ5GtYhw6C0Gg1e52sK-168" value="9" style="text;html=1;align=center;verticalAlign=middle;resizable=0;points=[];autosize=1;strokeColor=none;fillColor=none;" vertex="1" parent="1">
          <mxGeometry x="870" y="300" width="20" height="20" as="geometry" />
        </mxCell>
        <mxCell id="eAJ5GtYhw6C0Gg1e52sK-170" value="18" style="text;html=1;align=center;verticalAlign=middle;resizable=0;points=[];autosize=1;strokeColor=none;fillColor=none;" vertex="1" parent="1">
          <mxGeometry x="847" y="330" width="30" height="20" as="geometry" />
        </mxCell>
        <mxCell id="eAJ5GtYhw6C0Gg1e52sK-171" value="18" style="text;html=1;align=center;verticalAlign=middle;resizable=0;points=[];autosize=1;strokeColor=none;fillColor=none;" vertex="1" parent="1">
          <mxGeometry x="877" y="330" width="30" height="20" as="geometry" />
        </mxCell>
        <mxCell id="eAJ5GtYhw6C0Gg1e52sK-172" value="Camino crítico: B,F,K,L,M" style="text;html=1;align=center;verticalAlign=middle;resizable=0;points=[];autosize=1;strokeColor=none;fillColor=none;" vertex="1" parent="1">
          <mxGeometry x="465" y="490" width="150" height="20" as="geometry" />
        </mxCell>
        <mxCell id="eAJ5GtYhw6C0Gg1e52sK-174" value="" style="shape=image;verticalLabelPosition=bottom;labelBackgroundColor=default;verticalAlign=top;aspect=fixed;imageAspect=0;image=data:image/png,iVBORw0KGgoAAAANSUhEUgAAAVEAAAHTCAYAAACeDiuRAAAgAElEQVR4nO3df3Rb5Z3n8bfkTkhnjcNmYCeSKfhkPA7swd0M9oQzWZ/BcYJESjObdUrM5kdt7NOGDlBmfBzUhNDd04QYB49phh/LjyM1jgM0IfEhpBRsYtWdE9LBtWhKuoMtPKxpiZVZvNlE6BTjU1/tH5aN7cQ/wrV0JfnzOsd/xLKUR9/n6nOf596r+9ii0WgUERH5QuxWN0BEJJUpREVETFCIioiYoBAVETFBISoiYoJCVETEBIWoiIgJClERERMUoiIiJihERURMUIiKiJigEBURMUEhKknBCPpw2wrx+PutborIZVGISgL04/cUYrPZJvx8sdAcDlwbthWPE4gYcWivyMzZdCs8iTujC9/qEnYsPUBXXQlZpl5sgKCvivv/Tz43/eNhvnTgDepKrp6lhopcPo1EJbUYvZw4CGWlG7ljMzS1vEvY6jbJnKYQlaQwPEVfjy84MNVfEW7fzw5WUpSbTaHbBU3H6QxrSi/WUYhKCjlHZ8vPyS9bTq7dTlbhKjbTSkvnOasbJnOYQlQSJrRnJQvGnlhy+wheziAy/C4tTdmUFeUMb7hZX8W9GfbUvXp5ryMyixSikjCOB9u4EI0SHflpqSRvxlugQbjzOE3kkrNoXux3Cyl0u3C0vsGJnqkOA4jEz5esboDIjBhBDtftIxQKsXJB7YQHHRw80UtF3g0aFUjCaZuTlGD0nORgaxHe7k8/H8lGo0Sjn9LtLaL14El6NKUXCyhEJQUM0HPiDVpdt1OUO3/CY/PJLbodV+vTeNv1bSdJPIWoxJ/9anKWOi8+sWRz4vZ1Me0A0ujlxMF3cJUtJ/cSW6w9dzllrj5dMyqW0DeWJCkYQR+rl7xBWfd+KvMmjjZFkpdGopIEDCIf9XDaMfbMu0hqUIiKtcJ+PM4MFqwMUHHgXoqztElKatF0XkTEBO32RURMUIiKiJigEBURMUEhKiJigkJURMQEhaiIiAkKURERExSiIiImKERFRExQiIqImKAQFRExQSEqImKCQlRExASFqIiICQpRERETFKIiIiYoREVETFCIioiYoBAVETFBISoiYoJCVETEBIWoiIgJClERERMUoiIiJnwpHi9qs9ni8bIiIpclGo3G/f/QSFRExIS4jETHSsSeQMabOBNQHyTe2D5Q/RMvkbPhuIaoNh5rqf7WUx+kP03nRURMUIiKiJigEBURMUEhKiJigkJURMQEhaiIiAkKUUleYT8epxO3rwvD6rakDIOwfztO23p8wQGrGzMnpEWIGkEfbpsN26Q/hXj8/VY3M7mF/Xic4+vmLK+nORBSgCUJbefJKS1C1J5XSUs0SjQaJRr9mLYHC8DlpXto5Hed1JVcbXUzk5pxtpdToQIebPs4VrML+G99j/sKv0VD4LzVzZtl/fg9hdjcPoIptIeY2Xb+H8gq2U1f9BCVefOtbvKckBYhKvGQxQ0VW9nleoeGQ+8Qtro5IklqjoVomKDfh2eFMzb9ceNp7CA0MhoJ+/E4C/E0t9PscQ9PaT3+WIBM81wMIkE/vtjzbDYnKzxNBEKDVrzRWRU61ctZg+nr8+bjlI8cEljhoXH0UMBMajNIKND0eX1XeGh8u5c/jGvJdK8TOx7o9NDc8ebnf+cs5/GOWFvCfjzOa1i5JwCtVSzJsGEbPX6YDn04UoPt+MPG6O9mXrefUl+eP64P/xDqoPFStRzzf73Z9c+f/43Njae5i8jYZkWC+H0eVoweepj4+UldcyhEBwj6/p5H3smm6thHRKNRhj7aQv+2v+WH7WOPIwXYs66WTrePoWiUvroSshjkTPN2inf+DveLvcPP7fs+i/x/y4aGDiKAEdzHXY/8mq9UvTw8tRr6Bff372HND0+k/CjOsTSHRaNbyhT12f0x/6X9AtHoEJ88W8LHT/toDxsYZ17hgeI6emLPiQ4FqFt0nDUbniIQiX0cz/yEHWsOwP1+PolGGXrxbzh34HEaQp+3YyavA0BoD+s8P+OqqpeJRj/joyev5LG1j/DKmUHIKqGub+JUeHjqO+PXTzGXV7dfcvOjAaLR/0fnHf+LijXf4LYNPobuHlvLJ2gPj31eLa7vvMqVsXr3tS2nY90mdo4cnzU+pPmBdWz6+XXU9X0W+/zUkLFvw+jnJ6VF4wCIxumlZ+DjaNuDBVFc3mj30DR/OvRe1OtyRB0PtkUvRKPR6IW26IMOR7T4sbejn1z0d8ujD7Z9PPaX0Qtt26IOx7Zo24VL/UefRru9d0aZ9PH4+SL1H+r2Rl0UfP4eh/qibzd8M+pw3Bs98tFnw7+brD6x37u870UvfqfDdRit8bjnjPx/sVpN7LNxrzuT14n1CXdGvd2fTvI30eilt5GZvP7Mxf8zMNl2PnG7/OJ1u2ibuOh3k9Q71raR/3P4ORP/ZrLnzo5EZtAcGokCRojA0ec/nzJm3EhVa+iiP5u3MIs/Hvu0npMcbD3JnpXXjDkTmsGClbV8/uxBQoGfjJkyfZklVS8n4E3NpsDn7zHDxVNDX+NA+25Ks+eN+6uL6nO2l1MhJ0tzrr54amP0cuLgCUJ7VrJg7JnkBSvZExr/N+NHvF/gdabUx6ne/smvNDD9+klqlt+XfVEOSx3T/VUm1y5ZHDsMNEDPiTdodeSSs2jsdmQn89pc8vmA7o9Seyw6h0J0gOC+Byj84f/mlme7YlPu9/C6pt0iYsaeuR7z07ebkiw7RvAAFYVP0H3LXj6JRolGP6Xbe2dc39HsG/seT9NYU0ZJXtasvLLjwTYuTKzdF7hqYrZex6rXt0q6vq9kMHdCdGS0s2wVqy4zGIb3vlONZEb2tgW4V+WRORvtTSFTjk7sV5Oz1Pn5yanL+Bvjk/P0T/M3syber28VS95XhI+6P4jNLOaxKCcXR6iH3rNjT9AZRD7q4bTDhbtwYaIaFhdzJ0RHNqaOX/N+xAAjRMfeWnZcYjp/kawivvtkKad31LJ39Mzk8Nnoqu1+woxsKO/yzvthYJBQh5dHdqTadP4LyrqZ9dWL2LPzKfyhQYbPBrdQX/UI/vBCir+7ncrTj/PI3rdiZ2PHPm4AC1m2fiPFrQfZ134GAzBCb7Jj0334Rrvn6hm8zkwNTzcZvMAnvzfg9xEixmy+fjJJxPt6maotP6A5GNv2/U+xc88iqtffTBZ2spatpbr4BDseOUhXxIj9/6/wyM5DLKley7Ks1I6h1G79ZbmakocPcGTZGxRemYEto4IjC0vZVV0wg+fOI7t0N+2NSzm11kmGzYbNdife3/0nPNuLhzeUku/RfuSrvFb477HZcthwJJNNux5gpgcLUttVFFQ/T2fF79npvAKbLYMrt/hZuPFOlmXZsWevZW97Pfmn7sGZYcNmu5Y13jPc7Lmfkiw7YCez4F5efPtvOLPpWjJsNq793m9Y8T+b8bo+P/o6/evM1Hzy1n8f73W+4W0hdzcdEWMWXz+5xP99reWx+wv54JH/jM12Bc6dv6ei83mqC64afjhzGdUvHuPJfD8lV2YMbx/FR7lm+085VrMs5WduttiZrNl90dj6JnF4aZkB1d96c6MPDML+Hdywsodd3fuT6htSiax/6u5eRUSSgEJURMQETefTkOpvPfWBtTSdFxFJEXFdd35kbyDWUP2tpz5IfxqJioiYENeRqI4HWUPH46ynPrBWImcAGomKiJigEBURMUEhKiJigkJURMQEhaiIiAkKURERExSiIiImKERFRExQiE5gBH24bTZsKx5P6WVyRS5bJIj/cD3lzvRbGz6eFKLjDNBzog1qa6nufoFDHeesbpBIggwQPPQsLeGbeSg4RDQ6xCfvbeDstrVU7OuafJVUUYiOY/Ry4iCUlW7kjs3Q1PIuYavbJJIQ88mr/AfqKkvIy4wt2ZJ3C7fmQ+vBk/QoRSelEB1lEG7fzw5WUpSbTaHbBU3H6UzZBcpEZsfwqp1WtyJ5qTSjztHZ8nPyy5aTa7eTVbiKzbTS0qkpvcxBI6vhnl7NrrsLubxFxucWheiI8Lu0NGVTVpQzXJSsr+LeDHvqXiWowajMCQMEfeuHTyplOLml+iyba7ewOk8ROhWFKAAG4c7jNJFLzqJ5sd8tpNDtwtH6Bid6BixtnUhizCev8hDRaJRo9DP6OjfBvrUUfKuZMxpITEprLAEYXfhWl1DVGrrEgw5cXj+vV96QMnuclKt/GkqPPkjeJZGnozWWEszoOcnB1iK83Z/G9sIjP5/S7S3S2UkRmZRClAF6TrxBq+t2inIn7mnnk1t0O67Wp/G291vSOpGEMLrwfb2K+ubA6MX1RqiNR3fug8q7cF/02ZARClGjlxMH38FVtpzcS1TDnrucMlefrhmV9GbPY33DRha+vR1nxvA3ljKc9QxtPkD73rVkKykmpWOiaUj1t576wFo6JioikiIUoiIiJihERURMUIiKiJjwpXi++MjBXbGG6m899UH600hURMSEuI5EdXmHNXR5jfXUB9ZK5AxAI1ERERMUoiIiJihERURMUIiKiJigEBURMUEhKiJigkJURMQEhaiIiAkKUWDcKoejP05WeJoIhAatbpxIQhhBH+5xn4HhH6fHrxuST0EhOpZjG20XhobXV/rEz/0coHDDUwQiWmBJ5oo7L1prrK+uROvOT0EhOpnMPFa5C3C0/4Jf92k0KiKXphAVETFBITqZyL9wuPGYVjqUOeZlqpZ8OXY8NJ/y+haCOpw1JYXoWKFaVi7IGN6Arsyn6s2bqb7rJhaoSjIH2PMqaRk9FjrEJ9315J+uYcm6fQSVo5NSPIw19sRS9DP6XlnG6fJ1PND8IdqGZG6xk5l3G98uX4Oj9Wm87f1WNyhpKUQnNQ/HsjLKN1+B79k2epSiMufYybw2l3yrm5HkFKIiMgmDyEc9nGYxS67NtLoxSUshOqlBQh0HaWz6jMotK8lVpSSt9eOvfwSfP0gEAINI8BUe2XmIJY/VsD5PJ1cno2gYa+yJJdsVOD2/5dYDR9hber0KJWkuixtX3Mi5xnVcabNhs2Vw5Za3WfLwTzlWswyNQydni8ZhERitL2Mt1d966gNrJbL+GmCJiJigEBURMUEhKiJigkJURMSEL8XzxUcO7oo1VH/rqQ/Sn0aiIiImxHUkqss7rKHLa6ynPrBWImcAGomKiJigEBURMUEhKiJigkJURMQEhaiIiAkKURERExSiIiImKERFRExQiI4TJuj34VnhjN2Y2ckKz/McDYS0UJ2kv0gQ/+F6yp222PbvxtPYQUgb/5QUoiOMM/i338mSnT3c8mxXbMXPXl5c/ye8/7SP9rC2JElnAwQPPUtL+GYeCg4NL5n83gbObltLxb4uDSKmoDvbA2AQ9u/ghk1hnvxlA6XZ86xukCmpV//0kxZ9YHThW11CFbvofr2SvBQacunO9olmBDlctw82l7IqxQNUZLY5luawSEkxKZUGINJH92nIX+LUglwiAEaIjr217Di9ml13F5JldXuSmEIUMM72cipkdStErDZA0Ld++KRShpNbqs+yuXYLq/MUoVNRiAL2RTksdVjdChGrzSev8lDspOpn9HVugn1rKfhWM2d0ZmlSClGATCdL8uF0dx8Rq9sikhTm4SjYyEMPV4Dvx7T0DFjdoKSlEAWw51BUVkSoqZnjZwatbo2IpBCFKADzyVv/fby3/Zz7tj/Fm8Fw7PeDhALN1JdX4QtqTyxpzOjC9/Uq6psDoxfXG6E2Ht25Dyrvwp0739r2JTGF6IjMm6h86ggH1gxxoHhB7BsbOWw49H/58+/uoiJPG5GkMXse6xs2svDt7Tgzhr+xlOGsZ2jzAdr3riVbSTEpXWyfhlR/66kPrKWL7UVEUoRCVETEBIWoiIgJClERERO+FM8XHzm4K9ZQ/a2nPkh/GomKiJgQ15GoLu+whi6vsZ76wFqJnAFoJCoiYoJCVETEBIWoiIgJClERERMUoiIiJihERURMUIiKiJigEBURMUEhChhBH26bLXYj5pEfNx7fTwiEtFxIIlyyD1Z4aAyE0BppCRIJ4j9cT7lzzGegsWP0TvdyaQrRUQU82PZxbKXDKEN9O/mP3U9QWPAdfF3h6Z8us2BsH1yg+/4M9hV+i4bAeasbNgcMEDz0LC3hm3koOEQ0OsQn723g7La1VOzr0o5sCgrRSdgdyyivfY4jqzuoeuAwQW1FCZZF3qpVLHO8w5u/PqsPcdzNJ6/yH6irLCEv0w7Yycy7hVvzofXgSXrUAZNSiE7Ffj1rPX+Pq/VpvO39VrdGxBKOpTksUlJMSqWZhn1RDksdfZzq7ddoKKHCdB1+gSZK2eJerA010YwQHXtr2XF6NbvuLiTL6vYkMW2bkkQC7Fl5TeykxgJurOrgtuo13LQgrjcbk1EDBH3rh+uf4eSW6rNsrt3C6jxF6FQUopJEJp7ce4alp2sofuAVzmgakADzyas8FKv/Z/R1boJ9ayn4VrPqPwWF6DSMs72cChVRVpSjYiWY3fFXVJWvAd+PaekZsLo5c8w8HAUbeejhCtV/GsqFKZ3nV6820+q6naLc+VY3RkSSkEJ0EkYoQHP9A6xp+FO8e79BniqVcEboF3gbj0HlXbi1E4svowvf16uobw6MXlxvhNp4dOc+1X8aioZRY09q2Mgo+Ec+yLmb9uDzVN6gA+uJMaEPnD/g7K17ad+7lmxtqfFlz2N9w0YWvr0dZ8ZI/esZ2nxA9Z+GLRqHRWC0voy1VH/rqQ+slcj6a/8iImKCQlRExASFqIiICQpRERET4vp9upGDu2IN1d966oP0p5GoiIgJcR2J6vIOa+jyGuupD6yVyBmARqIiIiYoREVETFCIioiYoBAVETFBISoiYoJCVETEBIWoiIgJClFJGfr2jyQjheiIsB+P0zZ6Q+DRH+d2/GGt0hVvRtCHe2LtV3hoDIS0VHWiRIL4D9dTPvo5cONp7Bi9071cmkI0ZnhBuvGrTUajUaJ9uynJUpkSY2z9L9B9fwb7Cr9FQ+C81Q2bAwYIHqqjsTefh4JDw6t9ti2no2ItFfu6tCObgtJBklQWeatWsczxDm/++qw+xHE3n7xKL401bvIy7cA8HMVlbHZB68GT9KgDJqUQFRExQSEqSSpM1+EXaKKULe7F2lCtEOmj+zS4ypaTqw6YlEozzvjVJm02J26fjgclztj6L+DGqg5uq17DTQvierMxuaTzBJ5rYI92YtNSbcaZeGKpj5bKG1SkhBlf/6G+Z1h6uobiB17hjPZkCTRIyL+Xmq0fUvnkVtZmz7O6QUlN+SBJy+74K6rK14Dvx7T0DFjdnDnCINL1Et/bdJjrvC+xt/R6hcQ0NE8SkRiDSFcT95Zs47cVjbxYcROZVjcpBWgnI0nLCP0Cb+MxqLwLd+58q5uT5iYE6K7bcCgdZkRlirEvymGpY+KJJRs223p8QU0lE2N8/TOcP+DsrXtp37uWbG2pcXaOjh89wf5QiPZaF86MsZ+BQjz+fqsbmLRs0TgsAqP1ZayVrvW32Wwp857StQ9SRSLrr/27iIgJClERERMUoiIiJihERURMiOt1orqJrrXSrf7RaDTl3lOqtVcun0aikjIUSJKM4joS1eUd1tDlNdZTH1grkTtcjURFRExQiIqImKAQFRExQSEqImKCQlRExASFqIiICQpRERETFKIiIiYoREf14/cUTrghs27KnChG0Id7Yu1XeGgMhLTaaoJcsg9sNpweP2GrG5fEFKIjjH56T/XheLCNC6OrfUaJRg9RmaelKRJj7GqfF+i+P4N9hd+iIXDe6obNIXfi7f50zPYfpa+uhCyrm5XEFKKSpLLIW7WKZY53ePPXZzUalaSlEBURMUEhKkkqTNfhF2iilC3uxdpQE+ZlqpZ8OXY8NJ/y+haCEc0DpqJtc4LQnpUsGHtg3e0jqG0oQcau9rmAG6s6uK16DTctiOvNxiTGnldJy+ix0CE+6a4n/3QNS9bt02dgCgrRCS46sdRSSZ6qlCBjTyxFGep7hqWnayh+4BXO6EOcYHYy827j2+VrcLQ+jbddSyZPRvEgScvu+CuqyteA78e09Ogys8Szk3ltLvlWNyPJKURFZBIGkY96OM1illybaXVjkpZCVJKWEfoF3sZjUHkX7lxdqxtf/fjrH8HnDxIBwCASfIVHdh5iyWM1rNe10pNSiEoSGXtiyUaG8wecvXUv7XvXkq0tNc6yuHHFjZxrXMeVNhs2WwZXbnmbJQ//lGM1y9A4dHK2aBwWgdH6MtZS/a2nPrBWIuuv/buIiAkKURERExSiIiImKERFREyI6/fpRg7uijVUf+upD9KfRqIiIibEdSSqyzusoctrrKc+sFYiZwAaiYqImKAQFRExQSEqImKCQlRExASFqIiICQpRERETFKIiIiYoREVETFCIjmGEAhz1eVgxZrVPZ3k9h48GCGmhtFllBH24bTZsKx4nMJMlecN+PM4xq7CO/Di34w+rc2ZFJIj/cD3lo3V242ns0LY/DYUoAAaRrkbuLqig+dwt1Pd9NrpsbPChQni/iSe02uEsGqDnRBvU1lLd/QKHOs5N+wzjbC+nQuNXA41Go0T7dlOSpc3YvAGCh+po7M3noeAQ0ehn9LUtp6NiLRX7ulCOTk53tgeIdFC/ZgOv3fFiWiyFkPT1N7rwrd4JTzxKjve/sok9dNWVkDXVU4I+Vi95mqVtb1BXcnXCmvpFJX0fzITRhW91CVXsovv11Fo6XHe2T6gBgofq2dq9noe/XZjyAZr8DMLt+9nBSopysyl0u6DpOJ2akkuKUogS4aPuDyA/l2szVY74O0dny8/JL1tOrt1OVuEqNtNKS+f0U3pJsEgf3afBVbacXH00JqXSGP30nurDsTSHRSPVuOgkRiEev46Jzorwu7Q0ZVNWlDO88WV9Ffdm2FP3KsFpB6PjVwO12Zy4fTpeFx/nCTzXwB5K2eJerKCYgmpzKVkl1PUNn7gY6vbisro9acMg3HmcJnLJWTQv9ruFFLpdOFrf4ETPwDTPn3hiqY+Wyhu0Ec+6QUL+vdRs/ZDKJ7eyNnve9E+Zw7T92XMoKisipONy8WcEOVy3j1ColpULMmKjyQwWrKwlxAkOnujVqNJyBpGul/jepsNc532JvaXXKySmofown1z3XVRyjMbD/0LE6uakMaPnJAdbi/B2fzr+MqXop3R7i2g9eJIepaiFDCJdTdxbso3fVjTwaMVNOtE6AwpRwJ79dXYd+Aa/rfpv3FvfTCA0GHskTM9vehic8tkyMwP0nHiDVtftFOXOn/DYfHKLbsfV+jTe9n6gH7+nEJvbN4PjpDI7xgZoIy/uug2H0mFGVCYA5uEoeZhj3U+whqOscV4Rm2ouoPjoQu595Vn+rjj5r01MakYvJw6+M+mZXnvucspcfTS1vEs4drJv3OOLcljqmHhiyYbNth5fcLpjqTK9c3T86An2h0K017pwZujE6kzpYvs0lPL1N7rwrd7EW1uO8HyKHpNL+T5IcYmsf1wXqhO5fLGL8Qc3csz1lZQMUJlbtI1KcjF+x/EXPqS6/m4K9OUHSQGazqch1d966gNr6bvzIiIpIq7HREf2BmIN1d966oP0p5GoiIgJcR2J6niQNXQ8znrqA2slcgagkaiIiAkKURERExSiIiImKERFRExQiIqImKAQFRExQSEqImKCQlRExASFKGAEfbgveePZAYK+9dic2/Fr/aVZEibo9+FZ4RxdsXOF53mOBkKTrK8U64NxN2K2YVvhwXc0QEjdMnsiQfyH6ykfXenWjaexQzWehkJUEsc4g3/7nSzZ2cMtz3bF1lfq5cX1f8L7T/ton2pH5dhG24Wh2HM+o6/+Jrp/uIaCuxvpiuhTbt4AwUN1NPbm81BwaLjGbcvpqFhLxT4tSz0V3ZRZEsQg3P4Um/b9OUd++T8oHV2Gdx6OglJqvJfzWvNwFGym9sC/o/8v7+OBQ7fwupZONmk+eZVeGkf/PQ9HcRmbXc9SdfAkPRU3kKcCX5LKIokRWy6ZzaWsmqV1zO3ZX8Ozq4jWHfunHsWKxJFCVBIj0kf3achf4pzFZXjnsSgnF0eoh96zWpN11sX6bLLFBWWYSjPqUitJfpklVS9b3bC0YJzt5VTI6lbIzJ0n8FwDeyhli3uxgmIKqs2oAh5s+zh24mLk51O6vXda3bC0MLzksdWtkJkZJOTfS83WD6l8citrZ+nwS7pSiEpiZDpZkg+nu/uIzNqLDnK2t4eQ63aKcufP2qvObQaRrpf43qbDXOd9ib0pumR1Iqk+khj2HIrKigg1NXP8zCwdv4y8y6tN7+iY3awxiHQ1cW/JNn5b0cCjFTfN4vHr9KVNTxJkPnnrv4/3tp9z3/aneDMYjv1+kFCgmfryKnzBAQj78TiduH1TXZsYe869VTRc9zB71+dpQzZtbIA28uKu23CoqDOiMkniZN5E5VNHOLBmiAPFC2In73LYcOj/8uff3UVF3vzJT0CFalm5ICP2nCso+McPyCk/QrCxnBu0Pv0sOEfHj55gfyhEe60LZ8bYE6yX+jafjNC682koletvBH2sLn6HLb9sGHNBfupJ5T5IB1p3Xuaoftq9Xgarv4krhQNU5hZ97VOShnHmn3jh1DeoP1KoExqSMjSdT0Oqv/XUB9bSdF5EJEXEdTo/sjcQa6j+1lMfpD+NREVETIjrSFTHg6yh43HWUx9YK5EzAI1ERURMUIiKiJigEBURMUEhKiJigkJURMQEhaiIiAkKURERExSiIiImKEQnMrrwuZ04PX7C0/+1fEFG0IfbZsO24nECkRmsGR/243HaJqzGasPm3I5fa87POuNMM1VO3ZB5JhSiYoEBek60QW0t1d0vcKjj3LTPGL7j/SVWZO3bTUmWNuPZdZ5fvdTEB7dtoNjqpqQAbX2SeEYvJw5CWelG7tgMTS3vatSfNAwigR9R89pfU/fdYnRr7OkpRCXBDMLt+9nBSopysyl0u6DpOLqWb+gAAA6QSURBVJ2akieHSCfP1PwTd9TfTeGVGVa3JiUoRCXBztHZ8nPyy5aTa7eTVbiKzbTS0jn9lF7i7TyBZ2p57Y5t3FNwldWNSRkKUUms8Lu0NGVTVpQzvPFlfRX3ZthT9yrBaQejAfasvGbMiaXpllaWmYtN4xtu5OFva3mWy6EQlQQyCHcep4lcchaNHG1bSKHbhaP1DU70DEzz/IknlvpoqbxBG/FsiHTyTM0LLH5yC8U6UXdZtFCdJI4R5HDdPkKhECsX1E540MHBE71U5CkUrWD0/YY32wO0tufgm/BY68pr2OPy0v16JXnqnIuoJJIwRs9JDrYW4e3+dPxlStFP6fYW0XrwJD2am1vCnldJy7g+iTLU7cU1MvpvUYBORmWRBBmg58QbtLpupyh3/oTH5pNbdDuu1qfxtvcD/fg9hdjcvhkcJxWxlkJUEsPo5cTBd3CVLSf3EludPXc5Za6+4WtGjX56T/WNf3xRDksdE08s2bDZ1uMLTncsVSR+tO58Gkr5+htd+FZv4q0tR3i+9PqU3NOnfB+kuETWXyeWJMnELsYf3Mgx11dSMkBlbtE2KsnF+B3HX/iQ6vq7KcjU5inJT9P5NKT6W099YK1E1l+7ehERE+J6THRkbyDWUP2tpz5IfxqJioiYENeRqI4HWUPH46ynPrBWImcAGomKiJigEBURMUEhKiJigkJURMQEhaiIiAkKURERExSiIiImKERFRExQiF6CEfTh1s1+Z1/Yj8dpm3BTZdsM7mA/SCjwE3we95jn5VNe/yJHAyGt9hkHxplmqpw2bLZCPP5+q5uT1BSiFzGIfNTDaT6g+6OI1Y1JK8bZXk6FJq7YGZ1m/Z4wXb7vULDmZc7dspu+oZHnvcVDN2fw/tM+2sOK0dl1nl+91MQHt22g2OqmpADdlFmSmEEk4OU7Vf9GdecBagquGvNYFnklZdSUWNa4NBVbf/61v6auPpOH93db3aCkp5GoJC8jyKHtj9H9YDXfHhegEjeRTp6p+SfuqL+bwiszrG5NSlCISvKK9NF9GvKXOMm0ui1zwnkCz9Ty2h3buEc7rRlTiEqCTVyx04nb13XJk0PDx1CdLM25OrahGoT923GOPSnl3I5fx0RnQWwa33AjD3+7UDuty6AQlQSbeGKpj5bKG2a4IdrJKtlNXzRKNPop3d4749zWOSTSyTM1L7D4yS0UZykWLoeqJUlr3Fr0VjcmzRl9v+HN9gC+dTlkxEb5GUuqaB2ZOUx7GdrcpRCd1GKWXKtJjaXsi3FvKYWmFzjcpRiNJ3teJS1jLzuLRhnq9uIamTlMeRna3KayXOQPfHI+DI5cchbNs7oxc0w/fk/hmFHPPLLXbuNAxUdUldxPfXOA0MhoKNLLb7ovWNhWkWEK0RGj36a5gmvv+4Str9yvY0OJZvTTe6pv/O/s2ZTsfpnuA1+DoxU4M2InlK68k6PXlPPKMfWTWEvrzqehlK2/0YVv9Sbe2nKE50uvT+k9fMr2QZpIZP31jSVJEgbh9v3sGNzIMddXUjpAZW7RtirJwfgdx1/4kOr6uynI1GYpqUPT+TSk+ltPfWCttJnOJ3LtZ7mY6m899UH607xJRMSEuI5ENZWxhqaS1lMfWCuRMwCNREVETFCIioiYoBAVETFBISoiYoJCVETEBIWoiIgJClERERMUoiIiJihERURMUIjGGEEfblshHn//mF9+SHNVvtaXmS2jN76e8DNtfQcJBX6Cz+Me87x8yutf5GggdMmVQsUc40wzVU4btomfCbmIQnRS5wk03Mu612/liG+T1peZBcNLIE9c7TM6zfo9Ybp836Fgzcucu2U3fUMjz3uLh27O4P2nfbRryeRZdp5fvdTEB7dtoNjqpqQA3ZT5kgY507yDNQ1/ite/m9JsrbVkDYNIwMt3qv6N6s4D1BRcNeaxLPJKyqgpsaxxaSq2/vxrf01dfSYP7++2ukFJTyF6EYNI4Ck2rXufijYfFTdkWd2gucsIcmj7Y3Q/eICj4wJU4ibSyTM1/8Qd9T+i8Mpmq1uTEjRJneAP//pjHljjY/GR59hVkq0CWSnSR/dpyF/iRItXJ8J5As/U8tod27hHO60ZU0aM8xlnT/yM10PXc+P1C1ScuAiwZ+U1Y04QOXH7ui55cmj4GKqTpTlXx/rCIOzfjnPsSSnndvw6JjoLYtP4hht5+NuF2mldBuXEOFdwbXkdxx6DrTV78YcGrW5QGpp4YqmPlsobZrgh2skq2U1fNEo0+ind3jvj3NY5JNLJMzUvsPjJLVqC+jKpWhdZSME93+cxnmXTjp9wRoMcy9hzl1Pm6qOp5V3CVjcmzRl9v+HN9gC+dTlkxEb5GUuqaB2ZOegyv0kpRC8lcxnVB55k9ev3samhg4jV7Zmr7ItxbymFphc43KUYjSd7XiUtYy87i0YZ6vbiGpk5THkZ2tymskzCnv11dh3YAlsfZrf/jC7oToh+/J7CMaOeeWSv3caBio+oKrmf+uYAoZGOiPTym+4LFrZVZJhCdFLzcJQ8QP1jf0TtplpeOaPjo3Fn9NN7qm/87+zZlOx+me4DX4OjFTgzYieUrryTo9eU88qx+3UMTyyldefTUMrW3+jCt3oTb205wvOl16f0Hj5l+yBNpM268yIzZxBu38+OwY0cc30lpQNU5hZtq5IcjN9x/IUPqa6/m4JMbZaSOjSdT0Oqv/XUB9ZKm+n8yBsRa6j+1lMfpD/Nm0RETIjrSFRTGWtoKmk99YG1EjkD0EhURMQEhaiIiAkKURERExSiIiImKERFRExQiIqImKAQFRExQSEqImKCQlRExASF6KgBgr71Wj0ybqaor9GFz+3E6fFPupaSEfThthXi8feP+eWHNFfla/2f2RIJ4j9cT7lzZDVVN57Gjs9XE5BLUohKijpPoOFe1r1+K0d8m7T+j2kDBA/V0dibz0PBIaLRz+hrW05HxVoq9l16SWsZpk1PUtAgZ5p3sKbhT/H6d1OaPc/qBqWB+eRVemmscZOXaQfm4SguY7MLWg+epEcpOind2V5SjEEk8BSb1r1PRZuPihuyrG6QzHEaiUpK+cO//pgH1vhYfOQ5dpVkawOOp0gf3afBVbacXBV6UhqJSmKFalm5oPaSDzmWTvfkzzh74mf8LHQ91dcvUIDG1XkCzzWwh1KOuBer1lNQbSSxHNtouzBENBr9/GfoPbwuxwyefAXXltdx7DHYWrMXf0jLWMfHICH/Xmq2fkjlk1tZq2POU1KISopZSME93+cxnmXTjp9wRic8ZplBpOslvrfpMNd5X2Jvii9dnQiqj6SezGVUH3iS1a/fx6aGDiJWtydtGES6mri3ZBu/rWjg0YqbyLS6SSlAISpJyCDs347Tth5fcOCSf2HP/jq7DmyBrQ+z239G1zGaNjZAG3lx1204lA4zojJNFKpl5YKM2Dc2bNgmfktGEmCQs709hKb8m3k4Sh6g/rE/onZTLa+c0fFRc87R8aMn2B8K0V7rwplh02dghrTufBpK/foPEPR9k+K37uKXz5eSnYK7+tTvg9SWNuvOi3wh4ZN4d/ye6mMlKRmgMrcoRCXJDHLm+Kucqv4+RwqusroxItPSdD4Nqf7WUx9YK22m8yNvRKyh+ltPfZD+dMRJRMSEuI5ENZWxhqaS1lMfWCuRMwCNREVETFCIioiYoBAVETFBISoiYoJCVETEBIWoiIgJClERERMUoiIiJsztEA378Tht2Gz5VDV/OMmNfQ0igcdZYbNhc27HH9btf2eN0YXPnYvb1zXpTZWNoA+37meZGJEg/sP1lDtH7iPqxtPYQUib/JTmdIgaZ3s5FfoziouvwPdsGz2X3FjO0XHoMIPFy3GEeug9q5v/zppIH92n/5XT3X1a4sNyAwQP1dHYm89DwSGi0c/oa1tOR8VaKvZNvpOTOR6iw67i5g3fpPJ0M6/+6vxFjxrBV6lryqdiw19a0DaRRJlPXqWXxho3eZl2YB6O4jI2u6D14MlJBhgCClEAvvRnq9i4+SwNh94hPO6R8/zq1WZOb17H7X/2xxa1TkSSmUIUgKspdLugqZnjY9fqCb/DoQaoXl/AAusaJ2KNSB/dp8FVtpxcJcWkVBoA7GQVf5Nd+W/wbMsHseM/AwQPP8Oe/FL+5i90h3WZa84TeK6BPZSyxb1YQTEF1WaEPYeisptp3bGf9rABRi8nDn5A5ZaV2gvLHDNIyL+Xmq0fUvnkVtZmz7O6QUlN8TBqPnnfuIcHaaWls59w+352nHaxcdVXVCSZQwwiXS/xvU2Huc77EntLr9f2Pw0tVDdW1ldxb4aVO38A1/0z+bsOUJxlB13gEUcO8pc4ybS6GcJwgDZxb8k2flvRyIsVN6lfZkA7mXEWsmz9Rorbn2LP/sWUFeWoQHFkfHKefpwszbk6VmeDsH87Ttt6fMEBi1s310wI0F234dDGPyMq0zh2Mv9iNZtdDhwP3sM38uZb3aA01I/fU4jNZiPj2v/OH7bu5e+Kr449NsjZ3h5CFz0nwJ6V18S+RTP84/T4J1yOJuaco+NHT7A/FKK91oUzwzam3vrG2FS0ZHIaSt36DxD0fZPit+7il8+Xkp3Cu/jU7YP0kDZLJotclvBJvDt+T/WxkpQOUJlbFKKSJAY5c/xVTlV/nyMFui5XUoem82lI9bee+sBaiay/Jk0iIibEdTo/sjcQa6j+1lMfpD+NREVETIj7iSUdE0q8iaMf9UHije0D1T/xEjkDiMuJJRGRuULTeRERExSiIiImKERFRExQiIqImKAQFRExQSEqImKCQlRExASFqIiICQpRERETFKIiIiYoREVETFCIioiYoBAVETFBISoiYoJCVETEBIWoiIgJClERERMUoiIiJihERURMUIiKiJigEBURMUEhKiJigkJURMQEhaiIiAkKURERExSiIiImKERFRExQiIqImKAQFRExQSEqImKCQlRExASFqIiICQpRERET/j+yJF3mgckyWgAAAABJRU5ErkJggg==;" vertex="1" parent="1">
          <mxGeometry x="63" y="-270" width="337" height="467" as="geometry" />
        </mxCell>
        <mxCell id="eAJ5GtYhw6C0Gg1e52sK-175" value="" style="shape=image;verticalLabelPosition=bottom;labelBackgroundColor=default;verticalAlign=top;aspect=fixed;imageAspect=0;image=data:image/png,iVBORw0KGgoAAAANSUhEUgAAAaEAAAFBCAYAAADe7BBAAAAgAElEQVR4nO3deZxN9R/H8dds9iHZ933LWomSRL9sSZJChaxZKtmiQqSFSikSfllKm6VCiKKIXyFpI7JvGXuDYfZ77++P79wxSubec850xng/H48emTtzvvd7zj33fs/nez/n+wnx+Xw+REREXBDqdgdEROTKpUFIRERco0FIRERco0FIRERco0FIRERco0FIRERcE54xzfpYPOopAD6LOpn6aK37BwJwYuiN1F59HIB78mS3+VzLKBAyE4AtvvkU+9vv4xmYvyAAJRb/zJCGFQNu+ei2lQCMeG0xAI+//QY1bPZWRETOUyQkIiKuyaBICH78dA4ANSZ8yeO3V055NAmA9YPHUTC7/6nPMu/t6QBEncsNQKuevSgbuxGABXu9nF13GIB2feqxcOo8AOLymuimT/c7GfemF4C8wO9rPwNg+aY9ANS9tz/dZr5snr18QcBEZvNff49DZAPgtm79AKiV78J9WP3+fwHwZEsE4OE39/Hdo2UtHhEREfkrRUIiIuKakIxZtsfHszXLAXCi6/O0u74CADUa1AJgUoNiqd8JnexTn93NTcQxsNJvADQa8Dub3soPQIHG09hyYC8A341uzYqyTwLwegfT7YRiRbkht/n+adPR/rS8zkQ9X+14D4B5I9bg29gZgNiRm8g1ozcA35YawoT7kwEodf1zAByJ3kD+7CFmF2J/4sbrhgCw/MuRAOQv8yrHExcBUDBC47eIiF36JBUREddk2HdCfhVr16NxY/93Quf+9vvZPx/l16V3ADAj3EQhhavUBxqaP7hrDJWuMv98dctPNH7oJgAKFvOPn7tS2zqydiW+2tcAUACzUd/n72Bq8/PP9+2ubQDU6VyXQkVOAeDxmggsIcEDKd9VbV3yEXGlrwMgObw4ADewhDW7TwBwT9XCQR0HERH5uwwfhNLTPF9+6g0yiQmvdm+Q+vjZH8f97W+rl63E8uWrALjzapPkEFfmfMp14ZrXc2rjWwAcxQwWU7t9TqE0bdxezUwJrv51G0cLmynBiIgHAMgbef5wzFn4Nbd3nQVAcmheAN4YcwMD3t8EwD3Pt7SyuyIikoam40RExDUZlJgAu779xvw/Ji71scLX1AZg0T1V0tysGsf/lq8H4GzK3+XJX4WbqplufbUvB81qmekwkqJZ+9UGAJJzm8ea3FKRVSt2ANCgaR1Obv8RgF/3RgNQ49bb8P32ldmmQgPK5Tb9WfP1RmIxN8rWbdEEAJP0nQDAxtXrKXfTreZx//20sftZsca026hFHezeZisicqVTJCQiIq7JsEjoYvZtmA3A3S2eYtnRgwAUy6ZxUETkSvWvDkIiIiJpKQwRERHXaBASERHXaBASERHXaBASERHXaBASERHXaBASERHXBLV2XFKyB4BvtxzMkM6IiEjGqn9suiPtbCjck8Z17Bf5VCQkIiKuCepm1fhEUwTO4/WRO0dEhnXqchNzLoHI3NZXkjt6MoYiBSId6cvBI6coVfQqR9raffAkFUoVcKSthMRkskWEARASEmKrrV+3R1GrSnFL2+4+YFZXr1C6YNDb7o+Kpkzx/Jaed+uuowBcU7GIpe39Nu84TM3KxWy14bd97zGqlLNXkmTbbrNf1SrY2y+As7Fm3cY8ueytyhgXn0ROi59P/o/DxCQz65M9m7VCA7/tOkL1ikUtbeuXkPJ5my0izPZ7Jq3TKet55ovMaWl7p85lP0VCIiLiGg1CIgHSAlciztMgJCIirtEgJBIgB6flRSSF5UFoSttGTGnbiMjIyDT/lSEysgwrnexhFrFwWH0WDqvPnf/dy53/3Wu5ndgDGy845ruiYVe0tbaSog9yVb68XJUvL5GRDxAFRFnu2Xm/zOxM1bZPULXtExZb2M+1JSK5toTZxz4f/EafD34LqoW901qyd1pLIiMj6Tr+c7qO/zz9jXYs/Mv5HElkZF5m7TjKrB1HA3reAe3qMqBdXSIjIxm0MIpBC60d0W4taxEZWZnIyMosPZL+38cf3kL84S1cVag4x88mc/xscurvpj/eOnV/xn536XZi962nQMmKFChZkbMJ3tTHT6yZxIk1k6hwe/eA9+HLZxpw26Qd3DbJFJ08tnIsx1aOTe1L1UZt020j7fvG78iyZ1LbaNntHVp2e+eSbbz3eF3ee7wu983az32z9l/wu+2fDqP8bV0of1uXf9w+euNsojfOpkyDtP3dA+yhWtHz58qwT7enuz/ju9ZifNda9Jt/6G+/a9ugDJGRVYmMrMrywE43ADa9ciuNxn1Po3Hfpz42vNNNF5zHV+UfwFX5B3DuItuf2/sthcpeQ6Gy1xCXdP41f7Tt9Tza9nrb53J6FAmJiIhrrOUfAn0XrDH/P7EWgPt7fs1HC0el/NbH6PatAfji4ElemrcOgBIH5gHw9dbfmDkzGwBfruvF4FZtANj8ZzkApq/7kOreJACGtr6DtX+awt8TPl5HrWRTCvw/HQemPFcNlq95G4B8mTRr/MzRfRRu9TgAcZvtfbvtzVOSEzEx5oefxvLCyl8AGHNf7eAby5WHI6fOAHDo3Y7M/cJcyQ1sXsVi78wl+4zDNbmp4B8W2wDw0mT4AgB+6nd70Fv/uX8xE0tMA+B0TOnAr7Qq302M/9gmnQKgfZkmtCpZCIDY6NOX3v7YAgo0eRmAmHll6XfzC+bxuycH3Pej83oCUKnvB8QsNCntD7caQauVz19iqwT+OGrSbodfc47UM+z3dwFYk6czMSdnADCwdX34YsNF2wCIOhPOkCppr5fNe+9k0YYA3FFsXbr7cPbkAQDy3TmUhG/Pn++JlboCEB3zFABrJz7G+4fN7zr9Jev8zNF9ABd934RUf5TomDEATBhwDwBH6MrFEqJPH95D6Ra9AIg/6E3zm+MAzPwphObFEy6xN+c4HlkDgPtKfpTmcdOfZi+u4o3udS+x/Xkn9++g1u33ArA12QuY/kxqfDcAwxdsZ0GRHKl/n5B46fbiTptoKuTOZwlf5Lngdy+8v46Us4/dX77OWznNsc8NnD+L4wGIisnO45Vjz298zLz3ijV/FYCYj0taOpcDpUhIRERcYzkSuhSf7yB9p38MwNADcxjxwZcAdKuxDYBlf7Tiu3X1AHi9Q3Pum7QCgDfz/Q5Al5bP8f5nZo526MefM3rHTACe/3Q1pxNNuz3eM1dkPStmxB44K2+RspQ78YMjbeW5uhj+K6i1cz+jbueeltuKIIwBj/QD4IddeZk/t7z1jvm8vHbfcAC6Tx3O5Kdet94WBamX8wsAxg/+iKOVzD6+0uemgLY+vWElCcfN1fh/x/3Ejlz3AfBa/+YB9+Do7q8AOP7MZxTOZa7V9p9KZ6PCbSm+twMAt3cMYcCHMwJ+Pr8it/QF4JfBo+m7zFzb/5n7QDpbZadinZp/e/Tw9i2mzartIZu5ybZC0X/aCXODaMVa1f7yeB4AqlQumX7n/VsUKG3aOr3lgsdLlvGHO+aqe/OWA9zb/+Jt5C1iloO52PumCL/Tt6+JkKJztATgn759zFesPGX2p0yRpFltbEZvE1m2fGYAnw578hJ7k5vKVS+2NI2Jjm/wreCVx98AIKbuAMZ0vv4fWypQpjLFf035yD0LeM37+MPdJvKMW/gOE79eDkCv8Qupl869oDnzlQCgGlFA8kX+wrzWb784i1dXD7jI703UVemvr3lh891X4e3mfXN7hzBL53KgMmYQ2reLx14y4VuRpMMkFO9xwe+rNqmHP9Fo++5kfplgwvPPUn9/M8m7zYDVe+I4isenvAkrP0bzgSMBGDekNwCtDxdjzkejAcidSafjnLZliQmT384/ghnVC1lvKHteJr/1FgDRq0cxZs63AEzo2zjoppIT17MsTykAss2Zw9atvwKweL2ZVml2XeAfYhBJx259zD/j6tH93tnm3wEOQiEh4dx478MAdClylE79U7YnkEHITD/Ne3YiAPM/+ibQTnN250y2Fn4AgMWDinJP524A3Pn1vIDboJj5EJv74Sdw5kcA2t1l7QMgVx6zCkf84Xj8Uy+nTro/+TH31aEAxLQYg6V1L0o3YsqURgC8N+RBAJbG9KJVwIuO/MzC0+YTqPmCefy6fafp16qdtG8c6FVtXgA69egDcXUA6Nl1EVxiEPonIZhVK+7v3odD4VsBWPzrEeo1DX5Vj7T2rZoLwM47gzt/zu40F/3bSzxk+jK4APd0sXAuB8j9M1JERK5YGRMJHfmRig2bAVDjyCesvsT3uR0fKMWvhVsAUKtkbgDylqhO0kEzGte8vRUVd84C4HsfHP3DfPl9YzsTKv7xwiDikjN3JHQqaifrNpoU41M7TcLFpn1Xc33Z4Nd427rsJW4dZ9Y/m//8DXy72USJjWuWDrqtP36exY5oM9Vw8uutlLixfdBt+IVnb8CKdxqk/HSEX34xr1PrG037/nWwAvHj2A7sus5MS8X9NJciHQNPCwYoeGsHpo/5EIDS1b6jSJ2HAt72yIZFAMw61wmAx9L8Lr0VE/Ik5uDMWZMCvOHnE2TLY+FKNsHk5n67bhs/LHsPgKYvvJzORvFsWW0ShXafTua7tSZ6a9LEvEeyffgOqwuZpJOv8j7JiIu2YRIbfl29lj2nzDfia9d8wy2NrgVg2zqT233o6DH+t2ETAA3rX/yqP+bYHrMPGzZzZtdJAH7YXZDf3uwIwCeYRKRB10ezbo+ZMrqp/IXvhVNRJjpJ+77ZtO9qAL786F1uuskk4myNMufV/f8QBUUf3M6GH82+n9yTC4BN+1uxeI5/uvgEO9abiLNDk0r8fSnNGDatNjMEB4//yZrvTFJH9mUmCSuq0ZNEf2c+n8reN+jinUhxbNcWNm42qeZH4tbz8+FWADzTyWRnLJq3jO2r/gTgwYlFufgU23mx0ea9v2btRk6ZQ87GHSa564bKeZkxcQkAzy7o/Q8tnH/N90abSHnNN9/QsIBJGjtz1vR1w8+HrZ3LAVIkJCIirtEq2g7QKtrp0yraWkU7PVpF+0JaRVtERCSDaRASERHXWJqO2/vHn2RPmVoRSPZ4CQ+zPp4nJnlSp6rsik9IJkd2Z/JN7Exr/JXX5yPUoSkFO9OfsfEmMSSXhf2KS0giZ3Zrx+NsrPmyP0+ubJa2P99Ogu3pKr9zcYnkzmmvP+dS9iu3zf0C8HjMfTNhNt5LAF6vj9BQe+eaN+Vj0eo5ezY20fZrbbcP/yQ55Thb/cxKey6Xd2C6XpGQiIi4xtIlc+ni+ZWYkEZWTkxw4koHnE9MsNovf2KCle2dSEywezw37zjs2Guyfe8x2235ExOc6FNWS0ywe0wye2KCU+ehIiEREXGNBiEREXGNBiEREXGNBiGRAAWeRyoigXJs7biht4WQ9znzLh1xs1OtimQeDmfKigiKhERExEX2B6G9S2DvEvZUGs36pyew/ukJDnTrMvbHXPhjLm8s3QbR30P09zw1bFb628Xug9h99G45FB+mePDwNn0Z3qYvu8+lt/FfJJyAhBM8dENPYpIhJhkmPDyICQ8PYvMZC/skgKbjRDKCIiEREXGN7e+E5s80NSvaDhxP8mRTH+MoA3FmfdXLUElT3nlv95a0nm1q/IycODH97XKZujsDB+Vg0IiBAJR+zJQwrpA7yD5kNytEj3+7Ik8ONnV5Ct9m6uPUzBtkWyIiGcjGIBQDwNw1PwFQKfvrxJ8yd8SvXx7NlBbW7izPKjo2qc4Tm0wRrXJFAr8DvGSNlmwb/ygAdz78rK0+XF31Lo7vNGV5b3lotK22RIkJIhlB03EiIuIay5HQqS9fAiCytbnCHjukJUmnuwBQuWBnouPMNF3+DCkgnomdMOWIxyTWZPJ9pqzw0xNW8fbAJpfeLsGUOX62/2CWLlsMwPVtXwXgf588S55gjmNSrGnr3ra89tFKALp2N69XizmvcZWW/bNEiQkizlMkJCIirrEcp1zV7HkAZjU7/1hEPvNF/N6kJfZ6dTkrWB2Az0dVT33o7UC2y25Wvn5l/nepD/28yOJ3QhHmu6gxS7anPrTyk9estSWp9J2QiPMUCYmIiGs0CImIiGuCKu/tiTdp2XsPHE2dPhLweL2EhVofz5OSPUSEO1PeOyEpmewRzmSDOFkq3Mny3nbKUscnmEJhVvYrITHZcpEzO2XFL2gnLpFcNkty+9kpV57aH4f2C8DjNR9FYQ6U5rZ7rtktrR0bn2T7mGREee+HO7fi8KF9wPky38Hy79fTz71Fh/vutt0nRUIiIuKaoC7rQjElbysUz0tInoIZ0qHLUVYu710hk5b3rljG2vnnL+9doXTw2ztR3ttqv/027zhsuw2/7XuP2W7LX97biT5ltfLedo9JRpT3Pnz8DIePmxmtcS8Hn6x07tw5Zk59BYB8kTkc6ZMiIRERcc2VdiupiIgAffr0CXqbEydOpEZCTlEkJCIirtEgJBIgLdsj4jwb03FRANxetjwAm07noEi5/gD8/uMY2x0TyWy0YoKI8xQJiYiIa2wPQqVaDqRUy4FER0fzfPP1PN98Pfuc6Nnl6sBsODCblxZsgZPfwcnvePzRKelvd24PnNtDp5sfwesDrw8GNunCwCZd2Hk2yD4kHIOEY7Sr3JEzSXAmCcY+0IexD/Th51NBtuWJA08cnWu0JyoOouJgxqCBzBg0kLUngmzLL2oRz7y5gmfeXAFntsCZLfRs+4zFxkTkcqZISEREXGM7RfvYho8BaN36Z04ezgnAd2PttnoZK21qKh3v0ZRm75vvy8ZNm5T+drnN3z7zfBEeHWJKcl8zagQAlfIE2YfshQH474IbGPyoqaxapm1vAOoEex9rmHlNpy29nUd63g9AgYadAehh9V684m3I+2M7ANqsKwTA4CmvW2zs36PEBBHn2R6ECte/F4BZU8ayY8lwAEZsgOfr22358tamYU02/GJKKpQoGPhaX8Uq38YfO4YAcHfZIrb6kK9CM2IPfwpAubJlbLWVq8xtZDv7PgAly1S21RbAbfWvA2DpcpPgUr6oM3dfZyQlJog4T9NxIiLiGtuR0Lk/TDnr999/n6PrNwNwy0i7rV7GDv8AwPhsdflv550ADH/5S6YPbXaprSDupPnbR0ewYNEiAOrfZUpy11/wIvmCWQor0WQyDGvzIC/PXw5Aj67jAGg+5w2CCMzAa1ZJHt22Pb2nmH5NGGRS8A/f9jbFrAQwx7cwbr+Z5ntnUG0Aeg2cy7IJHSw0JiKXM0VCIiLiGhuRUHEA5i3+7PxDnTrZ7E4WUKwuAIueqpv60PRAtstpVqueuGB16kM/LHnRWh+ymUyGV7/4NfWh5Z++Ya2tUBOCjV70Y+pD780JqGD5PytUg3kv1rjgoWW32Gvy36DEBLnShYeHU6pMRQAiI51Z+V+RkIiIuEaraIsESNlxcqXLnz8/11Q0WbsNGzYkiMLc/yio8t6+eHO7/e69h/HkcKbYWVbg9foItVGSONnjJTzMmaA0KdlLRLgzbSUmeVIL0dnl8zn3IW6n7Li/WJmV/UpK8hIRYe3Y+guUWS2S5udkyfWERA/Zs9l7fRMS/cXf7J8n3pTy3nbeS+DMueb/VLTajp1S8E714WIe6XYXh/8wa9r4y6kHokbtGwDY8svG1P1KSEzm9z1HbfdJ03EiIuKaoCKh+JSrOY/XR26L5XOzIpX3Tp/T5b1rVSluaVs75b33HYqmbAl75b39UxlWbd5xmJqVi9lqw2/73mNUKVfYVhv+8t7VKtjbL8h65b2rVyxqaVu/jCjvvXjxYk7+GQ0Q1OxLkSLm9W3WrFnqObx111FHpuMUCYmIiGuUmCASICUmyOWudevWnI6JAyBfZM6gt/f5fI5F9X6KhERExDUahERExDW2B6HTuz7n9K7PqVe8FCUrXkvJitey8WyyE30TyVS0YoKI8xQJiYiIa2wkJvwEwLCxZuXs7w4dJBwvAGcTbffr8rVvJgDPbazLyCanAej95E9Mm97/0tud3QVAu1vGMv/HGQA8cuN9AAxYOZ8qwWRwJ5gvDu8o/zAf7UtZ+bp9VwBaz3qH653J4L7iKDFBxHmKhERExDXWI6FfvwcgrJqpkBkeAv4xLY+9e80ub2W7AxDbszEN36sKwNTZAZT3zmNWpn15UkW693kIgAYTTD2hoKIggOwmdfLDb5ryWDdTo+eah4YCKAoSkUzF+iBU1NyxnnT0kFN9yVKa1qvN/7bmBqDAVYHfvV2o7E2cO7kUgJLFrN2d75en5M2ExM0DoFhRZ3L6r2RKTBBxnqbjRETENdYjocKtAagX0gWA/q/EUzniHADHandhTJNC9nt3OfrjOwAm57+ZGT1Nee+RYz9n+lN3XHq72OMADO33AnMWfQpAgztMSe6bPnuJ/EGV9z4DwON39GDcos8B6NXlBQBazplE4St5utQGJSaIOE+RkIiIuMb22nE9X57tRD+yjpINAPjkifMPTb8zgO1ymchx6mcrUh/asOwla33IlheAyV+fL8m9ZEEAyREiIv8yRUIiIuIaDUIiAVJ2nIjzLBW12773GNnCnSn7nBV4fT5CbXxr7fH6CLNZ0tjPyVLhyclewh0qFe5keW87ZceTks2qHlZKoNs5tknJnpTntfe+cbLkuhOl4J3aLzDvI8DWewkyR3nvpCQPETZfp4wo7w32y6infc2dKGaoSEhERFyj8t4OUHnv9GWF8t77o6IpU1zlvdNSee+Ly6zlvQFbRe3AuXPZT5GQiIi4RoOQSICUmCDiPA1CIiLiGg1CIgHSsj0izrOxYkIUAM2r1jE/RRQhe65cAMz7fC3lC2Sz3TmRzETTcSLOUyQkIiKusT0IFW/Sg+JNerB582Y2fjmPjV/Oo0rxgZwFzjrQQZFLGXnn/Wz4Ezb8CWunDWPttGG8eyCADT1x4ImjTbGm7I+F/bEwuXcPVhyDFcfS33zttGG8sx/e2Q/smQJ7pjDqk9/s7o7IFUeRkIiIuMb2KtppheQzN/J19/yXMzGTAcjjzD2YIhf1zIcP8+B/zMrl8Q17AvBZ7wA2DDM36s3f0pPO9zQHoFS7oTxyiXs30yYm3Nz1Ed4oVQGAUZXbAvDrqj5B9l5EHB2EiDN34q4Oacy4HI62LHJREXnLU6VEHgD2RJYJevtsBWpSNNKsJ5cv36XvAE+bmBCaPR+31akMwBav+X9EhNLnRIKl6TgREXGN7Ujo9M71AIwbN46E4wcBGLh6TnDlqEUseqv/CGqNnQFAgbcGA7D59H+omS+dDT2JAAy8ow/dZs8FYOqgEextZdoql/vvm6Sdjvtp3gy2DjaFAmdtHgDAgnUtefCmUlZ3ReSKpEhIRERcYyMSMqsYf7pylUNdEQlev4nvnf9h0rzANwwzN1NP+GJN6kNTP5gR8ObXth/Em/4fmi8B4KbAn11EUigSEhER12gQEgmQlu0RcZ6lonbbdh9Vee80fD6fraJTdsuDp+VkqXAn2/IBTiUw2ymz7UkpbWxlv+wcj2SPSQO3W3rdyfLtHq+XsFD7/QH7+wXOlbN24lzzfyhabceJ18luH/6J3TLqaV/z6pXsFe4DRUIiIuIilfd2gMp7p0/lvVXeOz0q730hlfcWERHJYBqERAKkxAQR52kQEhER12gQEgmQynuLOM92ee+7rjXL6B/PUYwchcoCsOqzj2x3TEREsj5FQiIi4hrbq2jXaP0oAC+OGWK7MyLBGn1XR26f/gEASfOGAnCozat0Sm8xa088AO3KtOLl378EYMmAXtQYOxOA/xT6+yZKTBBxniIhERFxje1I6Ke5LwJQ7r3JlL5mEADfLH3MbrMiARk591E61KsLQFwzE40vDaSkT5gp/Tt322O0v6MJABW7vcDjF4mA/JSYIOI824PQtR2eBmCZpuPEBWE5i1OtvLlze0dE8Ks7hEdWoGxxc+d4zuzOrFohIoHTdJyIiLjGdiR0cNMXAIwceZqISDOX8czQ/nabFQnI6/1Gc914k0xQ5C0zHfzjqRZcl97yeSnlvfs27U+/uaa897SBT7HrLlPYrmKev2+ixAQR5ykSEhER19gu7/3e0hUOdUUkeAPemn3+hwlzAt8wpbz3lK/Pl6d/8/1Ll/dWYoKI8xQJiYiIazQIiYiIaywVtduy8wjZwjV+pbJZT9jnc26qJ7O25SQ7/bJTQtqt53WqDxnRllP7ZRpL+X8mPOeClVnfO2D/NUu7vdXikmlpJBEREdeovLcDVN47fSrvrfLe6VF57wupvLeIiEgG0yAkIiKu0SAkIiKu0SAkEiAt2yPiPNtrx3VqWgGAk+GViSxaHoB5sybbbVYk08msKbcilzNFQiIi4hrbkVCRG9sD8P5zY213RiRYL7R7gJsnzQIgaf6TAPzZbgIdSqazYUp57wcqtWL0z8sBWDq4D9eNNevH3XqRDO6003HrZo5g4w2mllbP5IkATDh4N8PvqhpQv2cN6E2+x98AoOL3o/m+/jjTVtmANgdgUo9uAFQYNYWCX48EYFuTV3ioTOBtiLhNkZCIiLjGfj2h5eZqrtDU6ZSpYa5Ef1g12G6zIgF56qP+3FezDgCxdz0LwLL0oiBILe/93tZBtG10MwDVHnnjohHQxdz4UD8m5zd1xEfWfByAqLVVAu5311ceo0OFagDsvPVpfuoQ8KapHplq6nZ1qFKTQ7ePAOC7rsG3I+Im24NQqRbmDXhc03HigtBsBbimspnD2pIU/J32YTmKUbWSKcYYxqXvsk+bmBASlpOaVa8HYE2sGdB8oYFnLoRE5KN6FTNoHUrIEUyXU4VGmJUxrqlSkT8T7a0yIOIWTceJiIhrbEdCIm56udfz1J9oEhNKvmWmgb+PbkO99JZ485h1yro1HsaQhR8B8PaAYWy/xyQmVLnIUn5pExM2zJ7K6QnTAVj82zAA5q3ZT/dGgWUFvDdyPKVeN2XJB38ykDUnOgPQKIgl7aYOegmAaq/PpMr7prT5tyc7crMzy/2J/BKOj60AABOPSURBVCsUCYmIiGu0irYDtIp2+rLCKtr7DkVTtoRW0U5Lq2hfnFbRDpwiIRERcY0GIZEAadkeEedZmo77bdcRIsLCMqxTVx6b9cEvaMq5usI+n8/RaQCn2OmX/3S3sr1bz+tUHzKiLaf2K6vJrO8dJ6R9zWtVsT81rEhIRERco8QEBygxIX1KTFBiQnqUmHAhJSaIiIhkMA1CIgHKolP8Iq7SICQSIFVWFXGeBiEREXGN7bXjfv3SFPQa/spaclyVBEDBqqOY9Ny1zjyBiIhkWYqERETENdYDlfi1AExeZMaxxSvmO9IhkcwqbWLC97OfZXVVU0urV/LrAEyPfoAnWlUOqK33hz5CeA9T0rvS96PYeutrAHQu7WCHRS4DioRERMQ11iOhLT8B4C1nShTHbF9B4Tp3ARAW3osjMea7ojw2OyiSWaTNjqvXuTeTc5vy3sXqDAcg+tvAoiCAB8c9SscSprLq1qZj2dzZuX6KXE6sD0LVagEQ8u5WACKr9CPu6A7TaIEXUTarZDUX3CcUko1KlW8E4OpT5s725CDuIwoJzUXVarUB2Hc62akuilx2NB0nIiKusR4J5W4MQNdb/wdAuzbdyJvnHAAVOz5IDvt9E8m0vpvxJsx8F4Cvt44A4MNVe+ndpFxA288Y9ipVppnt6306mBXHegDQ1N5SbiKXHUVCIiLiGtv3kja4d0TK/233RSRTS5uY0KDHMzTw/3DdTACqBtFWj5cmnv9h2Ht2uyZy2VIkJCIirtEgJBIgraIt4jxLRe227TlGtnCNX352K2p7vT5CQ535hPN6fISGOdOWx+MjzKG2nKxgnpzsJdzi+efxmNPdyn7ZObbJyV4Ay/1O247dNvw8Hi9hYfba8qTsV5gDffJ/Etke7J041/yfihbbceR1stmHf2zW5nFOey7bLdwHioRERMRFKu/tAJX3Tp/Ke6u8d3pU3vtCKu8tIiKSwTQIiQRIiQkiztMgJCIirtEgJCIirrExCEUBUXTr+xTd+j4FQMLxnSQc30n4LRNJBBId6aKIiGRVioRERMQ1tteOE7lSBH4zQ/rmDH+MpPvHAKa8975mZi25jiUDb2Nm/4cBiOz3MoW+HgnAiTaTuLeEc/0UyWiKhERExDW2I6EDS8YDkPOd189fKt7wst1mRTIdJ1O0O77wGPcXNetub7njDTZ3D76N7hMHANC+5DXsbzMJgA39HOuiyL/C9iBU+s4hAHw1ZSwJx3cCkPueZXabFcniIqhQ+ToAfv/jpOU2ACpXvZaDh/50qF8i/y5Nx4mIiGuUmCASICcTE6YOfo3as00xu0afPsHnR8zjdwSx3Nj4vq8CUH/WbG744AkAvjjai+bOLOkl8q9QJCQiIq6xEQmZVYxnTRmb+kj2QpUASF5byVanRDIjJxMT+rw66fwPg2ZZamPIlKnnf3hyps0eibhDkZCIiLhGg5CIiLjGUlG77XuPkz2lQJnYL8+d7PESbrPMcmpbyR7Cw515bZKSPEQ49Dqb08wcI7vTWgmJyZaLjSWlFCuzsl9JyR4iLB7bxCR/gTJ7uUB29v2vEpM8qYUGrbfhzH6BeR8Btkvde30+Qi2eZOc/Dc0/rBaTS0xKtn1Mzn80hzg6FezxppRkD7X2mZP2Na9a3l5RRFAkJCIiLlJ5bweovHf6VN5b5b3To/LeF1J5bxERkQymQUgkQCrvLeI8DUIiAXJyxQQRMTQIiYiIa2wPQu1696Jd715O9EVERK4wioRERMQ1WkVbJEBOJiZ8OnoAf7Z+GoAq34/iRJspALQNIvP8/SF9Tb+6jKHwqmcAiG8/hdYWMriXjR8GwO6GA2m441kAtt34KvdXzhVwG5+ONkX2Ttz5FADVN43m8B2TAbi3lK535eJ0ZoiIiGsUCYkEyMnsuHtGP0rnUrUBmHzHJH7qG3wbncY/DsD9Za7lQFsTcXxr8T7WlilRVbcStXi98esA7OgSeBQEZp8AupQ0+/Vmi4n80lvXuXJpGoREXBFCqdJ1APjp94OW2wAoX6E2u3Ycst0fgKJFryXxl70AeAl2qsS0UbLUtQBs3GZ1v+RKossUERFxjSIhkQA5mZgwsf8Ebpz/EQDNFgxjQZR5PJjEhBd6vAbArR9+SMMPhwKw+DCWEhNmPTUBgOsWzuW+r58EYN72WB6oEviU3MT+po16H5v9avnZMD45YNZgu7e0Vt2Xi1MkJCIirrEdCX0y7W0n+iGS6TmZmNB/4pvnf3hkmqU2hs9Is90ga234dRv7+vkfHjJlw68Lso0L9gmgr70+yZVBkZCIiLhGg5CIiLjGUlG7XQdOkN2hEtJZgcfrI8xGSeKkZC8R4c5cDzhRstnPyVLSXt/5L/btfr8fG59ELotFy/zncA4L+5WQ5LFc1j4uwTxvzuz2jqedff+r+IRkctjsj1P7BeZ9BNh6L4HN8t7+/6f8w2pX4hKSyJnd3uuUcjgICbH/nkkr2WMaDg+z1mra17xS2UK2+6NISEREXGPp8qVcyQIq752Gynunz+ny3lavwNwu7233ynHzjsOOXH2CKe9tty1/eW8n+pTVynvbPSaZvby3U+ehIiEREXGNBiEREXGNBiGRADm5YoKIGBqERETENbYHoRNr3+TE2jfpPPMXJ/ojkmk5uWKCiBiKhERExDVaRVtEWPG6KTW++fp+3LJ9NAD7Gk/ivoqBp/F+9sJgAA7eNgiAGptGc+pus35cm5JBXO+e2Uzf/nMBGPvq/QDc3XIWn68bD0CuQO4XPv0zAH2eWMKLY1oA0KHDpwAsXfUi2XT5nWnopRAREdcoEhIJUFbOjms6wJT3nl++HlNvMStq/94zuJsZ7xpuynv3qFAPgJktJrPpUQvXuXlr0v0/HwLQoNUTAHzx/ecEVWw8n6la2+m6d2nQ9gUAVq5bAEC24HskGUiDkEiAsnZigrk7/6rImsRu2ApYKe9t2ih4dS0AzmzYho+7geDXPktMyAvAf24oAcBOoFSQbQAkxl9Fwxrmzv7dKY+VtNCOZBxNx4mIiGssR0LzBnYD4MWlhwAY9213Z3okIv+6t58wpblv/mI+nVeNAOCDbed4qFrugNt4rZ+Zxrt16TwA2i5+ijn7zRps95cJYvXxvSt49Qcz+TZ3nJmOu7FcZ9bsfA+A3IF8au1aCsC0A0WZPbYtAI2v6QXA6i1vk12X35mGXgoREXGNpXpCHq9Pq2inoVW00+f0Ktq1qhS3tK2dVbT3R0VTpri9VbSvqVjE0vZ+m3ccpmblYrba8Nu+9xhVyhW21YZ/Fe1qFeztF2S9VbSrVyxqaVu/zL6Ktt1z2U+RkIiIuEaDkEiAsnZ2nIg7LE3H7Tl40nKZ46wo2eOzXCoXnC7J7SF7NmfaiktIdqRsMzhb3vtsbCJ5clm72yMuPqU0cY7g98tOOexzcUkA5M5pbxr7XGwiuS3u+185USrcqf0C8KSUnQ6z8V4C8Hp9hFqsy+1Uee9zcUm2j0nGlff2AhAeZi0GSfuaW5nW/itFQiIi4hpLl3VlSlytxIQ0lJiQPqcTE6xegbmdmGD3ynHzjsOOXH2CSUyw25Y/McGJPmW1xAS7xySzJyY4dR4qEhIREddoEBIJkBITRJynQUhERFyjQUhERFxjO/928MinAHh1xECe69IJgFbTvuQ6Z74bF8k0snIpBxG3KBISERHXOHAnYjwAcyaMpPbzXwIoCpIsKSsnJqx+6xkA1lfuSoOtprz3qTuncVf5wNN4l708FIDf6/cDoMYPo/A8MAuAFsWCuN6N+Z1H+r8LwLMvdwTg3ns/ZtnXzwGQM5B7sc9sAaDfkE8YPao5AJ26rwRg6bIRROjyO9PQSyEiIq6xHQlFfWPK8M4o2JWFT9ruj4i4oHG/hwGYX+VG+jaaBMDm/sHdzNhyqImAFla5BYC5LaayPpgIyC+yKt2bmo+mW+40HyorNiwjqN7krQFAl3rv0ujecQB8tW4hALrNPnOxPQgVv9UUsxt1S2FuGbMGgB+faWS3WZFMJysnJvh8Zlo9R7aanFi+DgAPbYOaKvG3kTfSlPc+9vVGfLQCgl/77OwZsz7eHTeXAWCL10dJCwu5nT6Vk9vqmJIKW1MWYythdUE4yRCajhMREdc4s0QyULXZY0ze/xgAz65txKhbnGpZJHPIyokJUwaY0tzN1nxCz69MksKs387xcPXAy3u/1GsiAC1WfgzA/UuG8+4eswZb1/JBrOy+aykTfjbrkn38yoMANCjVgYb7TdnwPIF8au1YAMCMqLJ88KJJbmhS5SEAGm2frfLemYheChERcY3KeztAq2inLyuU9953KJqyJVTeOy2V9744lfcOnCIhERFxjQYhkQBl5ew4EbdYmo7bHxVN9nCV9/ZL9ngtl8oFE3ZbDfv/Ki4hiZzZnZkqPReXSO6czpSS9vp8qVMKdj/LT5+NJ1+eHJa2PReXCGBpv+yUw445Z6aa7EzbApw5F0/e3Nb2/a/OxibYnvqKSZlCi7TZDtgvO+3n8foIs13e2/wr1OKVx5lzCeS1+Vp7U/oQEhLiaHnvpGQz1Rhh8TM87blctuTVtvujSEhERFxj6fK7ZNGrlJiQRlZOTHDiSgecT0yw2i9/YoKV7Z1ITLB7PDfvOOzYa7J97zHbbfkTE5zoU1ZLTLB7TDJ7YoJT56EiIRERcY0GIZEAKTFBxHkahERExDUahERExDU28oKjAHj6GVPK4cUxQ5zoj0imlZXXjhNxiyIhERFxjWOraItkdUpMuAKd2UzfJz8DYOSQG+n79FYAFs4xFQMCOSXefbQzALkffpFjs58FoN7w6dS1lu2f5SgSEhER1ygSEhH5J3lr0qXmLAAad57G2m9NTaNgguKH3hwOQPuaTSj42FwA+ikKSqVBSCRASky4Mh0+YlZf+E+Ngvwcb1YxaJ4j8I9OT8IxAKpVr8/3G342Dz58vbOdvIxpOk5ERFxjOxL6cc7zAJSa9QZFK94LwMZVE+w2K5LpKDHhCrR5Np/6TNTyzthqtLihDwBNf50OQCCLdbf/z7sAPP/VLK4ZOwCARVE9aGOtLmOWo0hIRERcYyMSMsP48h2nHOqKiEgmU7ML79c8/+PKzdODbuKT/81I/Xe10W850assRZGQiIi4RoOQSICUHSfiPEvlvQ8ePkX2CJX39ktK9hIRbn08j09IJkd2Z7Ll7ZSg/quY2ARHyjYDeL0+QkKdKe8dfSaO/HmtFeSyU47aTrnz02fjASyXJfc7FRPHVRaLkf3VmbMJ5M1j7/V1ar8gk5X39qaU97bYzumYePJF2jsm3pQ+hIQ6W947MaW8dzaL5b3Tvuali9u/4UmRkIiIuMbS5XfxIvlU3juNrFze24krHXC2vPepmDjL/fKX97ay/f6oaMvP6y+JbPd4nt4R79hrsn3vMdtt+ct7O9GnrFbe2+4xyezlvZ06DxUJiYiIazQIiQRIiQkiztMgJBIgrZgg4jwNQiIi4hobg1AUEEX72oVoX7sQj8z4JfU3Pq+HTm0a0alNI95Yud1+L0VEJEtSJCQiIq6xfYdkxTbdAYj4dhr0MOsinVz+CJ3b1gbgd7tPICJypTttZpp6PLsGgJGdCzFqtrm5990JD1hrM+4gAEN6Pc/QNwcC0KHjfD5bMhKAyH+p2pwiIRERcY0DY10hAOqUO8uiY38CMO2hP/loXnUAfvfYfwYRkStaPjOz9GDBiQA0HRTK+lVv22szZykA+vWqTaMmPQFYum71vxYB+Tn2dM063kOdAVMAqPLKK+SLeMf8QoOQiIgjtu8169E1LOFj0xmzwkSzvPZWmDgSFU33jvUA+OrYWSqUdmbFlUBpOk5ERFzjWCSUu2Jd7vyjFwCvdB0O/3OqZRGRK9yG1wDYWvdeAKa3y027u4YD0Gz1eGtt7l0BwJPz8/DNHFO2vEmR+2hzxDxexJkF9NOlSEhERFxju7z3i2OGpD4yYc2e879uOAqAx60/gYiIANQfBMCk+ucfWri6nr02yzUFYM2nTVMfWh29wl6bFigSEhER12gQEhER11iajjty/Aw5LBZ7upz4l+5Pb/XkxCQPZ1JK3v5TO5dqIzY+ieRkryN9iY1L5NDR05b7klZCQvJF2wq0L2l5PF5CQ0OD3u5ifD4uuY+XkpBo7hnwbx/M8YiLT7J8PDxe7wXPa5Wdff+rpGSv7bb8Jbmd6FNSStnp0zH//F4KtE9WS4T7X0tvyusVZrEdr9dn+5h4Uo5taGiooyu4+4vlnY1NtLR92nO5RJF8tvujSEhERFwTVDgTGmqG4xJF8l0RkVCgYuMSyZUzm+Xto0/Hkj9fLkf6cuzkWQoXyONIWyEhULyw/SsdMFe5/qtTu6WK4xOSbF+BWdn+yIkYiha0Vobdf5Vvt98JicmOXH0CeLw+2235I3gn+hQXnwRguTS3X0JisuWy3P7y3v4ILyI8zFI7iUke28fEf86Eh4U6Wt7bbhl1p85lP0VCIiLimhCfT0WLRUTEHYqERETENRqERETENRqERETENRqERETENRqERETENRqERETENRqERETENRqERETENRqERETENRqERETENRqERETENRqERETENRqERETENRqERETENRqERETENRqERETENRqERETENRqERETENRqERETENRqERETENRqERETENRqERETENRqERETENRqERETENf8HvUXKDxrGGwQAAAAASUVORK5CYII=;" vertex="1" parent="1">
          <mxGeometry x="431.5" y="-160" width="417" height="321" as="geometry" />
        </mxCell>
      </root>
    </mxGraphModel>
  </diagram>
</mxfile>
